<svg xmlns="http://www.w3.org/2000/svg" xmlns:xlink="http://www.w3.org/1999/xlink" id="spritesheet" width="389"
     height="306" viewBox="0 0 389 306">
    <g class="ears ears1" transform="translate(8 -22)">
        <symbol id="ear1" viewBox="-64 -75.8 127.9 151.5">
            <path stroke="#000"
                  d="M-60 74.6C-49.2 81.2-.8 39.7 41.9 13c24.6-15.4 30.9-43.1 4.3-71.9-26.5-28.9-62.4-14.6-77.6 5.3C-54.8-23.1-70.8 67.9-60 74.6z"/>
        </symbol>
        <use width="127.9" height="151.5" x="-64" y="-75.8" class="left" transform="scale(1 -1) rotate(-18 -339 -457)"
             xlink:href="#ear1"/>
        <use width="127.9" height="151.5" x="-64" y="-75.8" class="right" transform="rotate(162 114.5 83.3)"
             xlink:href="#ear1"/>
    </g>
    <g class="ears ears2" transform="translate(8 -22)">
        <symbol id="ear2" viewBox="-64 -75.8 127.9 151.5">
            <path stroke="#000"
                  d="M-60 74.6C-49.2 81.2-.8 39.7 41.9 13c24.6-15.4 30.9-43.1 4.3-71.9-26.5-28.9-62.4-14.6-77.6 5.3C-54.8-23.1-70.8 67.9-60 74.6z"/>
        </symbol>
        <use width="127.9" height="151.5" x="-64" y="-75.8" class="left"
             transform="scale(1 -1) rotate(-9.9 -704.6 -728.6)" xlink:href="#ear2"/>
        <use width="127.9" height="151.5" x="-64" y="-75.8" class="right" transform="rotate(170.1 124.1 77.2)"
             xlink:href="#ear2"/>
    </g>
    <g class="ears ears3" transform="translate(8 -22)">
        <symbol id="ear3" viewBox="-64 -75.8 127.9 151.5">
            <path stroke="#000"
                  d="M-60 74.6C-49.2 81.2-.8 39.7 41.9 13c24.6-15.4 30.9-43.1 4.3-71.9-26.5-28.9-62.4-14.6-77.6 5.3C-54.8-23.1-70.8 67.9-60 74.6z"/>
        </symbol>
        <use width="127.9" height="151.5" x="-64" y="-75.8" class="left" transform="matrix(1 0 0 -1 104.8 139.2)"
             xlink:href="#ear3"/>
        <use width="127.9" height="151.5" x="-64" y="-75.8" class="right" transform="rotate(180 134.4 69.6)"
             xlink:href="#ear3"/>
    </g>
    <g class="ears ears4" transform="translate(8 -22)">
        <symbol id="ear4" viewBox="-64 -75.8 127.9 151.5">
            <path stroke="#000"
                  d="M-60 74.6C-49.2 81.2-.8 39.7 41.9 13c24.6-15.4 30.9-43.1 4.3-71.9-26.5-28.9-62.4-14.6-77.6 5.3C-54.8-23.1-70.8 67.9-60 74.6z"/>
        </symbol>
        <use width="127.9" height="151.5" x="-64" y="-75.8" class="left" transform="scale(1 -1) rotate(8 1092.7 621.5)"
             xlink:href="#ear4"/>
        <use width="127.9" height="151.5" x="-64" y="-75.8" class="right" transform="rotate(-172 144.6 63.5)"
             xlink:href="#ear4"/>
    </g>
    <g class="ears ears5" transform="translate(8 -22)">
        <symbol id="ear5" viewBox="-64 -75.8 127.9 151.5">
            <path stroke="#000"
                  d="M-60 74.6C-49.2 81.2-.8 39.7 41.9 13c24.6-15.4 30.9-43.1 4.3-71.9-26.5-28.9-62.4-14.6-77.6 5.3C-54.8-23.1-70.8 67.9-60 74.6z"/>
        </symbol>
        <use width="127.9" height="151.5" x="-64" y="-75.8" class="left" transform="scale(1 -1) rotate(19 516 191.6)"
             xlink:href="#ear5"/>
        <use width="127.9" height="151.5" x="-64" y="-75.8" class="right" transform="rotate(-161 154.9 55)"
             xlink:href="#ear5"/>
    </g>
    <path fill="none" stroke="#000" stroke-miterlimit="10"
          d="M194.7 247.4c-32.6 0-71.3-12.4-82.1-49.7a79.4 79.4 0 0 1 24.2-83.1c13.8-13 32.6-26 57.9-26 25.3 0 44 13 57.9 26a79.4 79.4 0 0 1 24.2 83.1c-15.3 37.5-49.5 49.7-82.1 49.7z"
          class="head head1"/>
    <path fill="none" stroke="#000" stroke-miterlimit="10"
          d="M290.3 200.4c6.7-27.3-2.4-58.5-34.4-86.6-14.2-12.5-37.1-25.1-61.2-25.1s-47 12.5-61.2 25.1c-32 28.2-41.1 59.3-34.4 86.6 11.7 47.2 63 51.5 95.6 51.5 32.6 0 83.9-4.2 95.6-51.5z"
          class="head head2"/>
    <path fill="none" stroke="#000" stroke-miterlimit="10"
          d="M194.7 256.4c32.6 0 78.8 3.3 95.3-25.2 19-32.8 18.3-80.2-27.2-116.8a112.5 112.5 0 0 0-68.1-25.7c-24.3 0-47.1 9.1-68.1 25.7-45.5 36.7-46.2 84-27.2 116.8 16.5 28.5 62.8 25.2 95.3 25.2z"
          class="head head3"/>
    <path fill="none" stroke="#000" stroke-miterlimit="10"
          d="M79.7 223.7c-13.8-37 6-79.6 33.2-103.7a128.2 128.2 0 0 1 81.8-31.3c25.2 0 57.5 9.7 81.8 31.3 27 24.1 47 66.7 33.2 103.7-19.7 52.7-82.4 38.1-115 38.1-32.6 0-95.3 14.7-115-38.1z"
          class="head head4"/>
    <path fill="none" stroke="#000" stroke-miterlimit="10"
          d="M69.9 234.5c-16.7-40.8-1.2-87.4 37.7-117.3a137.8 137.8 0 0 1 87-28.5c14.8 0 50.7.6 87.2 28.5 39 29.9 54.5 76.5 37.7 117.3-24 58.3-117.1 32.1-124.8 32.1-7.7 0-101 26.2-124.8-32.1z"
          class="head head5"/>
    <path d="M195.2 106.6c3.6 0 11 1.5 18.9 9 13 12.4 15 32.4 20.3 37.7 8 8.2 36 11.2 36.3 31.4 0 9.2-14.7 35.2-33.1 45.5-20.2 11.3-31.2 15.3-42.4 15.3s-22.2-4-42.4-15.3c-18.3-10.2-33.1-36.2-33.1-45.5.2-20.3 28.2-23.2 36.3-31.4 5.3-5.3 7.3-25.3 20.3-37.7 7.8-7.4 15.4-9 18.9-9z"
          class="point" id="point"/>
    <path d="M188.27 128.5c-1.2-5.7-2.7-14.2-2.7-14.2s-4.3 8.2-4.3 12.3c0 6.5 1.3 17 1.3 17s-2.8-4.7-5.5-9.5c-1.4-2.5-1.8-8.3-3-13.7-1.1-4.9-3.1-9.7-3.1-9.7s-9.8 8-13 24.5c-1.3 6.6-.9 15.8-.9 15.8s-4.4-2.5-5.1-15.5c-.3-5.3 3.4-20 2.2-25.8-1.3-5.8-10.8-17-10.8-17l51.8-19.7 51.9 19.8s-9.6 11.2-10.8 17c-1.3 5.8 2.5 20.5 2.2 25.8-.7 13-5.1 15.5-5.1 15.5s.3-9.3-.9-15.8c-3.2-16.5-13-24.5-13-24.5s-2 4.7-3.1 9.7c-1.2 5.4-1.6 11.1-3 13.7-2.7 4.8-6.5 9.5-6.5 9.5s2.3-10.5 2.3-17c0-4.2-4.3-12.3-4.3-12.3s-1.5 8.5-2.7 14.2c-2.3 11.2-6.9 18-6.9 18s-4.7-6.9-7-18.1zm149.4 68.8s-36.7-9.8-47.2-16.7c-4-2.6-7.5-11.3-11.7-13.3-4.3-2.1-13.3-3.7-19.5-2.3-5.6 1.2-21.9 11-21.9 11s13.8-1.4 20.8-2c3.5-.3 15.4-.2 18.2 2 3.3 2.6 6.2 11.2 9.3 14 4.7 4.1 22.3 10.7 22.3 10.7s-9.9-1.1-13.1-1.9c-4.4-1.1-12.7-4.8-17.2-5.3-8.6-.9-28.3 3.7-28.3 3.7s25.2.6 30 2.2c10.6 3.4 31.6 11.1 41.3 16.7 5.6 3.2 20.4 16 20.4 16zm-288.3 34.6s14.8-12.8 20.4-16c9.7-5.6 30.7-13.3 41.3-16.7 4.8-1.5 30-2.2 30-2.2s-19.7-4.5-28.3-3.7c-4.6.5-12.8 4.2-17.2 5.3-3.2.8-13.1 1.9-13.1 1.9s17.6-6.6 22.3-10.7c3.2-2.8 6-11.4 9.3-14 2.8-2.2 14.7-2.3 18.2-2 7.1.7 20.8 2 20.8 2s-16.4-9.7-21.9-11c-6.2-1.4-15.2.3-19.5 2.3-4.3 2.1-7.8 10.7-11.7 13.3-10.4 6.9-47.2 16.7-47.2 16.7z"
          class="tabby"/>
    <path fill="#b47a00"
          d="M140.3 128.5c1-6.5 7.8-12.3 8.2-19 0-2.1-2.2-4.2-1.5-6.2 2.4-7.2 11-10.8 17.6-14.6 6.2-3.6 20.3-7.5 20.3-7.5l19.3 4c-3 11-9.9 11.5-14 15.7-1.3 1.3-.7 3.9-2 5.2-4.5 4.6-11.6 8.6-17.8 7.3-4.2-.9-7.3-4.2-11.2-1.4-4.6 3.3-1.7 6.7-1.7 10.3 0 4-3 13-5.5 16-3.3 4-12.9-2.2-11.7-9.8zm20.5 53.9c3.3 1.2 1.6 9 5.2 9.2 8.7.3 13-13.2 14.4-21.8.5-3.1-2.4-6-2.5-9.1-.2-4.4 5.4-10 2.2-12.9-3.2-2.8-8.6 1.5-12.3 3.5-3 1.5-6.1 3.3-7.6 6.2-1.5 3 1.6 7.5-.6 9.9-5.3 5.7-19.9-3.8-23 3.3-2.7 6 4.7 14.3 11 16.4 4.4 1.5 8.8-6.3 13.2-4.7zm72.6 12c6.5 5.2 11.5 1 17.5 6.9 2.7 2.8 4.3 16.8 10.5 14.8 11.5-3.7 11.1-7.1 16-11.1 3.7-3-3.5-17.2-5-20-4-8.2 0-15.3 9.4-15.2 7.6 0 9.7-8 14.5-4.6 2.9 2.1-1.1 8.8 2 10.6 6.5 3.9 15.4-2 15.6-8.8 0-1.7-2.7-2.7-2.5-4.4.6-6 6.6-8.2 11.9-10.1l-51.4-54.3-56-14c4.5 4.8 16.3 21 15.5 26.1-.9 4.9-8.8 6.3-10 11.1-.7 3.6 1.3 7.4 3.2 10.6 2.3 4 13 7.6 9.5 10.7-4 3.6-14.3-.6-20.1 3.3-3.9 2.6-9.3 3.1-7.8 11.6 1.5 8.5-10.7 27.4 2 30.2 12.7 2.7 17.7.7 25.2 6.6zm-46.8 20c-7 1.8-14.6 9-14 16.2 1.2 14.4 27.5 17 38 26.9 4.5 5 6 11.8 12.2 12.2 7.3.3 15.7-2.7 20.3-8.4 3.4-4.2 6.4-12 2.8-16-2.7-3-10.4 4.5-11.8.8-2.3-5.9 16.4-5.5 14.8-11.6-2.5-9.5-18.1-5.8-24-7.6-6.4-2-10-11-16.7-11.3-2.8-.2-4.6 3.7-7.4 3.9-5 .4-9.4-6.4-14.2-5.1zm-76.3-46.3c-2 2.7-1.5 6.8-3.7 9.3-7.4 8.1-26.9 4.5-29.2 15.2-1.8 7.9 14.1 11.2 14.7 19.2.2 3.6-6 5.8-5.3 9.3.6 3.7 5.8 4.7 8.7 7.2 11.6 10.2 18.8 28 33.9 31.8 7.2 1.8 20 1.5 21.5-5.8.7-3.7-7-3.6-9-6.8-2.8-4.7-.2-11.6-3-16.4-4.2-7.4-19.6-8.1-19.5-16.7 0-6.5 12.7-6.4 14.8-12.5 3.7-10.9-3.2-22.9-7.1-33.7-1.3-3.6-1.6-9.4-5.3-10.1-5-1-8.6 5.9-11.5 10z"
          class="tortie"/>
    <path d="M188.27 128.5c-1.2-5.7-2.7-14.2-2.7-14.2s-4.3 8.2-4.3 12.3c0 6.5 1.3 17 1.3 17s-2.8-4.7-5.5-9.5c-1.4-2.5-1.8-8.3-3-13.7-1.1-4.9-3.1-9.7-3.1-9.7s-9.8 8-13 24.5c-1.3 6.6-.9 15.8-.9 15.8s-4.4-2.5-5.1-15.5c-.3-5.3 3.4-20 2.2-25.8-1.3-5.8-10.8-17-10.8-17l51.8-19.7 51.9 19.8s-9.6 11.2-10.8 17c-1.3 5.8 2.5 20.5 2.2 25.8-.7 13-5.1 15.5-5.1 15.5s.3-9.3-.9-15.8c-3.2-16.5-13-24.5-13-24.5s-2 4.7-3.1 9.7c-1.2 5.4-1.6 11.1-3 13.7-2.7 4.8-6.5 9.5-6.5 9.5s2.3-10.5 2.3-17c0-4.2-4.3-12.3-4.3-12.3s-1.5 8.5-2.7 14.2c-2.3 11.2-6.9 18-6.9 18s-4.7-6.9-7-18.1zm149.4 68.8s-36.7-9.8-47.2-16.7c-4-2.6-7.5-11.3-11.7-13.3-4.3-2.1-13.3-3.7-19.5-2.3-5.6 1.2-21.9 11-21.9 11s13.8-1.4 20.8-2c3.5-.3 15.4-.2 18.2 2 3.3 2.6 6.2 11.2 9.3 14 4.7 4.1 22.3 10.7 22.3 10.7s-9.9-1.1-13.1-1.9c-4.4-1.1-12.7-4.8-17.2-5.3-8.6-.9-28.3 3.7-28.3 3.7s25.2.6 30 2.2c10.6 3.4 31.6 11.1 41.3 16.7 5.6 3.2 20.4 16 20.4 16zm-288.3 34.6s14.8-12.8 20.4-16c9.7-5.6 30.7-13.3 41.3-16.7 4.8-1.5 30-2.2 30-2.2s-19.7-4.5-28.3-3.7c-4.6.5-12.8 4.2-17.2 5.3-3.2.8-13.1 1.9-13.1 1.9s17.6-6.6 22.3-10.7c3.2-2.8 6-11.4 9.3-14 2.8-2.2 14.7-2.3 18.2-2 7.1.7 20.8 2 20.8 2s-16.4-9.7-21.9-11c-6.2-1.4-15.2.3-19.5 2.3-4.3 2.1-7.8 10.7-11.7 13.3-10.4 6.9-47.2 16.7-47.2 16.7z"
          class="torbie"/>
    <path fill="#f7f4e9"
          d="M61.07 260.1s56.5-20.2 75-30.3c8.7-4.7 21.9-5.8 26.1-14.7.8-1.7 6.4-10.9 6.9-12.7 2.9-8.4 15.1-20 18-28.4.4-1.2-.3-4 0-5.3.6-2.4 4.2-6.3 5-8.7 2-5.5 3.8-23 3.8-23s4 11.9 4.2 16c.2 2.9-2.6 8.9-1.5 11.7 1.1 2.8 7.2 5.4 9 7.8 5.2 6.5 15.7 31.4 20.8 37.9 5.9 7.4 16 6.9 24.4 11.3 17.4 9.2 75.5 39.7 75.5 39.7L194.67 306z"
          class="lowwhite"/>
    <path fill="#f7f4e9"
          d="M190.27 131c-2.8 5.5-13 14.3-15.6 20.5-4.7 11.2-6.7 24.5-19.3 30.7-3.8 1.8-20.8-3-29.4-1.5-22.3 3.9-71.1-7.1-71.1-7.1l-14.6 97.7 154.4 34.7 136.2-36.7 5-93.7s-51.2 2.4-67.3 8c-4 1.4-17.5-.6-21.5.7-3.2 1.1-13.5-5.8-15.2-8.7-3-5.1-8.2-9.2-8.3-10.7-.3-2.9-3-10.8-4.2-13.5-3.5-8.1-17.3-16.3-14-28 1.7-6.3-9.2-22.9-9.2-22.9s-1.3 21.3-5.9 30.5z"
          class="highwhite"/>
    <g class="muzzle muzzle1">
        <path fill="none" stroke="#000" stroke-miterlimit="10"
              d="M160.7 248.6c2.6 6.1 17 11.5 26.5 11.5 9.6 0 23.9-5.4 26.5-11.5l-26.5-25.9z" class="jaw"
              transform="translate(8 -22)"/>
        <path fill="none" stroke="#000" stroke-miterlimit="10"
              d="M187.2 233c-11 3.5-22.2 17.9-28.7 19.4-11.2 2.7-21.7-7-18.7-17.4 2.6-8.8 24.2-29.4 30.1-39.4 5.8-9.8 12.2-10.3 17.3-10.5h.1c5.1.2 11.5.8 17.3 10.5 5.9 10 27.5 30.6 30.1 39.4 3 10.3-7.5 20.1-18.7 17.4-6.5-1.5-17.7-15.9-28.8-19.4zm0-17.8v18.4"
              class="lips" transform="translate(8 -22)"/>
        <path d="M187.2 215.2c3.9 0 3.1-3.7 3.7-5.1.6-1.5 4.7 0 5.8-1.1.7-.7 1.1-2.3.4-3-1.7-1.9-7.3-1.7-9.9-1.7-2.6 0-8.2-.2-9.9 1.7-.6.7-.2 2.3.4 3 1.1 1.1 5.2-.4 5.8 1.1.6 1.4-.2 5.1 3.7 5.1z"
              transform="translate(8 -22)"/>
    </g>
    <g class="muzzle muzzle2">
        <path fill="none" stroke="#000" stroke-miterlimit="10"
              d="M160.7 255.6c2.6 6.1 17 11.5 26.5 11.5 9.6 0 23.9-5.4 26.5-11.5L187.2 238z" class="jaw"
              transform="translate(8 -22)"/>
        <path fill="none" stroke="#000" stroke-miterlimit="10"
              d="M157.9 258.9c-10.5-1-19.3-12.1-16.6-22 2.4-8.8 26.2-36 33.5-43.9 5.3-5.6 8.9-6.5 12.4-6.5s7.1.9 12.4 6.5c7.3 7.9 31.1 35 33.5 43.9 2.7 9.9-6.1 21-16.6 22-6.2.6-29.3-18.4-29.3-18.4s-23.1 19-29.3 18.4zm29.3-30.5v12.1"
              class="lips" transform="translate(8 -22)"/>
        <path d="M187.2 228.4c3.9 0 3.1-3.7 3.7-5.1.6-1.5 4.7 0 5.8-1.1.7-.7 1.1-2.3.4-3-1.7-1.9-7.3-1.7-9.9-1.7-2.6 0-8.2-.2-9.9 1.7-.6.7-.2 2.3.4 3 1.1 1.1 5.2-.4 5.8 1.1.6 1.4-.2 5.1 3.7 5.1z"
              transform="translate(8 -22)"/>
    </g>
    <g class="muzzle muzzle3">
        <path fill="none" stroke="#000" stroke-miterlimit="10"
              d="M160.7 264.8c2.6 6.1 17 11.5 26.5 11.5 9.6 0 23.9-5.4 26.5-11.5L187.2 251z" class="jaw"
              transform="translate(8 -22)"/>
        <path fill="none" stroke="#000" stroke-miterlimit="10"
              d="M159.7 264.8c-10.5-1-21.5-11.4-18.8-21.2 2.4-8.8 29.1-43.8 35.3-52.7 3.3-4.7 11.1-4.2 11.1-4.2s7.8-.5 11.1 4.2c6.2 8.9 32.9 43.9 35.3 52.7 2.7 9.9-8.3 20.2-18.8 21.2-6.2.6-27.5-9.9-27.5-9.9s-21.5 10.5-27.7 9.9zm27.5-21.8v11.9"
              class="lips" transform="translate(8 -22)"/>
        <path d="M187.2 243c3.9 0 3.1-3.7 3.7-5.1.6-1.5 4.7 0 5.8-1.1.7-.7 1.1-2.3.4-3-1.7-1.9-7.3-1.7-9.9-1.7-2.6 0-8.2-.2-9.9 1.7-.6.7-.2 2.3.4 3 1.1 1.1 5.2-.4 5.8 1.1.6 1.4-.2 5.1 3.7 5.1z"
              transform="translate(8 -22)"/>
    </g>
    <g class="muzzle muzzle4">
        <path fill="none" stroke="#000" stroke-miterlimit="10"
              d="M160.7 274.6c2.6 6.1 17 11.5 26.5 11.5 9.6 0 23.9-5.4 26.5-11.5l-26.5-13.8z" class="jaw"
              transform="translate(8 -22)"/>
        <path fill="none" stroke="#000" stroke-miterlimit="10"
              d="M160.7 274.1c-10.5-1-22.1-13.2-19.4-23.1 2.4-8.8 24.5-42.7 31-53.6 5.3-8.7 10.3-9.8 14.9-9.8s9.6 1.1 14.9 9.8c6.6 10.9 28.6 44.7 31 53.6 2.7 9.9-8.9 22.1-19.4 23.1-6.2.6-26.5-8.3-26.5-8.3s-20.3 8.9-26.5 8.3zm26.5-19v10.8"
              class="lips" transform="translate(8 -22)"/>
        <path d="M187.2 255.1c3.9 0 3.1-3.7 3.7-5.1.6-1.5 4.7 0 5.8-1.1.7-.7 1.1-2.3.4-3-1.7-1.9-7.3-1.7-9.9-1.7-2.6 0-8.2-.2-9.9 1.7-.6.7-.2 2.3.4 3 1.1 1.1 5.2-.4 5.8 1.1.6 1.4-.2 5.1 3.7 5.1z"
              transform="translate(8 -22)"/>
    </g>
    <g class="muzzle muzzle5">
        <path fill="none" stroke="#000" stroke-miterlimit="10"
              d="M187.2 270.7l22.8 12.1c-2.6 6.1-13.3 11.4-22.8 11.4-9.6 0-20.2-5.4-22.8-11.4z" class="jaw"
              transform="translate(8 -22)"/>
        <path fill="none" stroke="#000" stroke-miterlimit="10"
              d="M161.5 283c-13.4-.6-22.8-16-18.7-27.9 3-8.7 27.3-48.5 31.8-58.3 3.7-8.2 12.6-8 12.6-8s8.8-.2 12.6 8c4.5 9.8 28.9 49.6 31.8 58.3 4.1 11.9-5.3 27.3-18.7 27.9-6.2.3-25.7-7.3-25.7-7.3s-19.5 7.6-25.7 7.3zm25.7-16v8.8"
              class="lips" transform="translate(8 -22)"/>
        <path d="M187.2 267c3.9 0 3.1-3.7 3.7-5.1.6-1.5 4.7 0 5.8-1.1.7-.7 1.1-2.3.4-3-1.7-1.9-7.3-1.7-9.9-1.7-2.6 0-8.2-.2-9.9 1.7-.6.7-.2 2.3.4 3 1.1 1.1 5.2-.4 5.8 1.1.6 1.4-.2 5.1 3.7 5.1z"
              transform="translate(8 -22)"/>
    </g>
    <g class="eyes eyes1" transform="translate(8 -22)">
        <symbol id="shine1" viewBox="-2.2 -2.2 4.3 4.3">
            <circle r="2.2" fill="#fff" class="st2"/>
        </symbol>
        <symbol id="pupil1" viewBox="-6.2 -10.1 12.3 20.3">
            <path d="M0-10.1c2 0 6.2 3.2 6.2 10.1 0 6.9-4.4 10.1-6.2 10.1-1.9 0-6.1-3.2-6.1-10.1 0-6.9 4.2-10.1 6.1-10.1z"/>
        </symbol>
        <path fill="none" stroke="#000" stroke-miterlimit="10"
              d="M143.6 206.5c-10.9-5.7-11.9-12.9-11.9-12.9s6-5.3 17.8-.9c11.8 4.4 13.5 13.8 13.5 13.8s-10.4 4.8-19.4 0zm87.2 0c10.9-5.7 11.9-12.9 11.9-12.9s-6-5.3-17.8-.9c-11.8 4.4-13.5 13.8-13.5 13.8s10.4 4.8 19.4 0z"
              class="iris"/>
        <g class="inner">
            <use width="12.3" height="20.3" x="-6.2" y="-10.1" transform="matrix(1 0 0 -1 148 199.4)"
                 xlink:href="#pupil1"/>
            <use width="12.3" height="20.3" x="-6.2" y="-10.1" transform="matrix(1 0 0 -1 226.4 199.4)"
                 xlink:href="#pupil1"/>
            <use width="4.3" height="4.3" x="-2.2" y="-2.2" transform="matrix(1 0 0 -1 231.8 193.5)"
                 xlink:href="#shine1"/>
            <use width="4.3" height="4.3" x="-2.2" y="-2.2" transform="matrix(1 0 0 -1 154.2 197.9)"
                 xlink:href="#shine1"/>
        </g>
    </g>
    <g class="eyes eyes2" transform="translate(8 -22)">
        <symbol id="shine2" viewBox="-2.2 -2.2 4.3 4.3">
            <circle r="2.2" fill="#fff" class="st2"/>
        </symbol>
        <symbol id="pupil2" viewBox="-6.2 -10.1 12.3 20.3">
            <path d="M0-10.1c2 0 6.2 3.2 6.2 10.1 0 6.9-4.4 10.1-6.2 10.1-1.9 0-6.1-3.2-6.1-10.1 0-6.9 4.2-10.1 6.1-10.1z"/>
        </symbol>
        <path fill="none" stroke="#000" stroke-miterlimit="10"
              d="M211.4 206.5s.4-11.1 12.2-15.5a18.5 18.5 0 0 1 19.1 2.6s.3 8.2-10.6 14.1c-10.5 5.8-20.7-1.2-20.7-1.2zm-48.4 0s-.4-11.1-12.2-15.5c-11.8-4.4-19.1 2.6-19.1 2.6s-.3 8.2 10.6 14.1c10.6 5.8 20.7-1.2 20.7-1.2z"
              class="iris"/>
        <g class="inner">
            <use width="12.3" height="20.3" x="-6.2" y="-10.1" transform="matrix(1 0 0 -1 148 199.4)"
                 xlink:href="#pupil2"/>
            <use width="12.3" height="20.3" x="-6.2" y="-10.1" transform="matrix(1 0 0 -1 226.4 199.4)"
                 xlink:href="#pupil2"/>
            <use width="4.3" height="4.3" x="-2.2" y="-2.2" transform="matrix(1 0 0 -1 231.8 193.5)"
                 xlink:href="#shine2"/>
            <use width="4.3" height="4.3" x="-2.2" y="-2.2" transform="matrix(1 0 0 -1 154.2 197.9)"
                 xlink:href="#shine2"/>
        </g>
    </g>
    <g class="eyes eyes3" transform="translate(8 -22)">
        <symbol id="shine3" viewBox="-2.2 -2.2 4.3 4.3">
            <circle r="2.2" fill="#fff" class="st2"/>
        </symbol>
        <symbol id="pupil3" viewBox="-6.2 -10.1 12.3 20.3">
            <path d="M0-10.1c2 0 6.2 3.2 6.2 10.1 0 6.9-4.4 10.1-6.2 10.1-1.9 0-6.1-3.2-6.1-10.1 0-6.9 4.2-10.1 6.1-10.1z"/>
        </symbol>
        <path fill="none" stroke="#000" stroke-miterlimit="10"
              d="M211.4 206.5s.4-13.4 12.1-17.8a17.1 17.1 0 0 1 19.1 4.9s.7 9.6-10.2 15.5c-10.5 5.9-21-2.6-21-2.6zm-48.4 0s-.4-13.4-12.1-17.8-19.1 4.9-19.1 4.9-.7 9.6 10.2 15.5c10.5 5.9 21-2.6 21-2.6z"
              class="iris"/>
        <g class="inner">
            <use width="12.3" height="20.3" x="-6.2" y="-10.1" transform="matrix(1 0 0 -1 148 199.4)"
                 xlink:href="#pupil3"/>
            <use width="12.3" height="20.3" x="-6.2" y="-10.1" transform="matrix(1 0 0 -1 226.4 199.4)"
                 xlink:href="#pupil3"/>
            <use width="4.3" height="4.3" x="-2.2" y="-2.2" transform="matrix(1 0 0 -1 231.8 193.5)"
                 xlink:href="#shine3"/>
            <use width="4.3" height="4.3" x="-2.2" y="-2.2" transform="matrix(1 0 0 -1 154.2 197.9)"
                 xlink:href="#shine3"/>
        </g>
    </g>
    <g class="eyes eyes4" transform="translate(8 -22)">
        <symbol id="shine4" viewBox="-2.2 -2.2 4.3 4.3">
            <circle r="2.2" fill="#fff" class="st2"/>
        </symbol>
        <symbol id="pupil4" viewBox="-6.2 -10.1 12.3 20.3">
            <path d="M0-10.1c2 0 6.2 3.2 6.2 10.1 0 6.9-4.4 10.1-6.2 10.1-1.9 0-6.1-3.2-6.1-10.1 0-6.9 4.2-10.1 6.1-10.1z"/>
        </symbol>
        <path fill="none" stroke="#000" stroke-miterlimit="10"
              d="M211.4 206.5s-1.3-15.8 10.6-19.9c13.8-4.6 20.7 7 20.7 7s1.5 11-9.3 17c-10.6 5.8-22-4.1-22-4.1zm-48.4 0s1.3-15.8-10.6-19.9c-13.8-4.6-20.7 7-20.7 7s-1.5 11 9.3 17c10.7 5.8 22-4.1 22-4.1z"
              class="iris"/>
        <g class="inner">
            <use width="12.3" height="20.3" x="-6.2" y="-10.1" transform="matrix(1 0 0 -1 148 199.4)"
                 xlink:href="#pupil4"/>
            <use width="12.3" height="20.3" x="-6.2" y="-10.1" transform="matrix(1 0 0 -1 226.4 199.4)"
                 xlink:href="#pupil4"/>
            <use width="4.3" height="4.3" x="-2.2" y="-2.2" transform="matrix(1 0 0 -1 231.8 193.5)"
                 xlink:href="#shine4"/>
            <use width="4.3" height="4.3" x="-2.2" y="-2.2" transform="matrix(1 0 0 -1 154.2 197.9)"
                 xlink:href="#shine4"/>
        </g>
    </g>
    <g class="eyes eyes5" transform="translate(8 -22)">
        <symbol id="shine5" viewBox="-2.2 -2.2 4.3 4.3">
            <circle r="2.2" fill="#fff" class="st2"/>
        </symbol>
        <symbol id="pupil5" viewBox="-6.2 -10.1 12.3 20.3">
            <path d="M0-10.1c2 0 6.2 3.2 6.2 10.1 0 6.9-4.4 10.1-6.2 10.1-1.9 0-6.1-3.2-6.1-10.1 0-6.9 4.2-10.1 6.1-10.1z"/>
        </symbol>
        <path fill="none" stroke="#000" stroke-miterlimit="10"
              d="M211.4 206.5s-5.5-17.7 10.8-22.4c16.3-4.6 20.4 9.5 20.4 9.5s3.5 13.4-10.5 19.1c-11.6 4.9-20.7-6.2-20.7-6.2zm-48.2.2s5.5-17.7-10.8-22.4c-16.3-4.6-20.4 9.5-20.4 9.5s-3.5 13.4 10.5 19.1c11.6 4.8 20.7-6.2 20.7-6.2z"
              class="iris"/>
        <g class="inner">
            <use width="12.3" height="20.3" x="-6.2" y="-10.1" transform="matrix(1 0 0 -1 148 199.4)"
                 xlink:href="#pupil5"/>
            <use width="12.3" height="20.3" x="-6.2" y="-10.1" transform="matrix(1 0 0 -1 226.4 199.4)"
                 xlink:href="#pupil5"/>
            <use width="4.3" height="4.3" x="-2.2" y="-2.2" transform="matrix(1 0 0 -1 231.8 193.5)"
                 xlink:href="#shine5"/>
            <use width="4.3" height="4.3" x="-2.2" y="-2.2" transform="matrix(1 0 0 -1 154.2 197.9)"
                 xlink:href="#shine5"/>
        </g>
    </g>
    <path fill="none" stroke="#000" stroke-miterlimit="10"
          d="M194.7 247.4c-32.6 0-71.3-12.4-82.1-49.7a79.4 79.4 0 0 1 24.2-83.1c13.8-13 32.6-26 57.9-26 25.3 0 44 13 57.9 26a79.4 79.4 0 0 1 24.2 83.1c-15.3 37.5-49.5 49.7-82.1 49.7z"
          class="lines1" id="lines1"/>
    <path fill="none" stroke="#000" stroke-miterlimit="10"
          d="M290.3 200.4c6.7-27.3-2.4-58.5-34.4-86.6-14.2-12.5-37.1-25.1-61.2-25.1s-47 12.5-61.2 25.1c-32 28.2-41.1 59.3-34.4 86.6 11.7 47.2 63 51.5 95.6 51.5 32.6 0 83.9-4.2 95.6-51.5z"
          class="lines2" id="lines2"/>
    <path fill="none" stroke="#000" stroke-miterlimit="10"
          d="M194.7 256.4c32.6 0 78.8 3.3 95.3-25.2 19-32.8 18.3-80.2-27.2-116.8a112.5 112.5 0 0 0-68.1-25.7c-24.3 0-47.1 9.1-68.1 25.7-45.5 36.7-46.2 84-27.2 116.8 16.5 28.5 62.8 25.2 95.3 25.2z"
          class="lines3" id="lines3"/>
    <path fill="none" stroke="#000" stroke-miterlimit="10"
          d="M79.7 223.7c-13.8-37 6-79.6 33.2-103.7a128.2 128.2 0 0 1 81.8-31.3c25.2 0 57.5 9.7 81.8 31.3 27 24.1 47 66.7 33.2 103.7-19.7 52.7-82.4 38.1-115 38.1-32.6 0-95.3 14.7-115-38.1z"
          class="lines4" id="lines4"/>
    <path fill="none" stroke="#000" stroke-miterlimit="10"
          d="M69.9 234.5c-16.7-40.8-1.2-87.4 37.7-117.3a137.8 137.8 0 0 1 87-28.5c14.8 0 50.7.6 87.2 28.5 39 29.9 54.5 76.5 37.7 117.3-24 58.3-117.1 32.1-124.8 32.1-7.7 0-101 26.2-124.8-32.1z"
          class="lines5" id="lines5"/>
</svg>