<?xml version="1.0" encoding="UTF-8" standalone="no"?>
<!-- Created with Inkscape (http://www.inkscape.org/) -->

<svg
   xmlns:dc="http://purl.org/dc/elements/1.1/"
   xmlns:cc="http://creativecommons.org/ns#"
   xmlns:rdf="http://www.w3.org/1999/02/22-rdf-syntax-ns#"
   xmlns:svg="http://www.w3.org/2000/svg"
   xmlns="http://www.w3.org/2000/svg"
   xmlns:sodipodi="http://sodipodi.sourceforge.net/DTD/sodipodi-0.dtd"
   xmlns:inkscape="http://www.inkscape.org/namespaces/inkscape"
   width="210mm"
   height="297mm"
   viewBox="0 0 210 297"
   version="1.1"
   id="svg8"
   inkscape:version="0.92.2 (5c3e80d, 2017-08-06)"
   sodipodi:docname="cat clipart head.svg">
  <defs
     id="defs2">
    <clipPath
       clipPathUnits="userSpaceOnUse"
       id="headClip">
      <ellipse
         style="display:inline;opacity:1;fill:#000000;fill-opacity:1;stroke:none;stroke-width:0.57255203;stroke-miterlimit:4;stroke-dasharray:none;stroke-dashoffset:0;stroke-opacity:1"
         cx="151.48578"
         cy="199.24619"
         rx="19.840986"
         ry="15.431041" />
    </clipPath>
  </defs>
  <sodipodi:namedview
     id="base"
     pagecolor="#ffffff"
     bordercolor="#666666"
     borderopacity="1.0"
     inkscape:pageopacity="0.0"
     inkscape:pageshadow="2"
     inkscape:zoom="2.8"
     inkscape:cx="542.35482"
     inkscape:cy="388.94432"
     inkscape:document-units="mm"
     inkscape:current-layer="layer4"
     showgrid="false"
     inkscape:snap-object-midpoints="true"
     inkscape:snap-smooth-nodes="true"
     inkscape:snap-intersection-paths="true"
     inkscape:object-paths="true"
     inkscape:snap-nodes="false"
     inkscape:window-width="1920"
     inkscape:window-height="1001"
     inkscape:window-x="-9"
     inkscape:window-y="-9"
     inkscape:window-maximized="1" />
  <metadata
     id="metadata5">
    <rdf:RDF>
      <cc:Work
         rdf:about="">
        <dc:format>image/svg+xml</dc:format>
        <dc:type
           rdf:resource="http://purl.org/dc/dcmitype/StillImage" />
        <dc:title></dc:title>
      </cc:Work>
    </rdf:RDF>
  </metadata>
  <g
     inkscape:groupmode="layer"
     id="layer2"
     inkscape:label="Layer 2"
     style="display:inline;opacity:1">
    <g
       id="g907"
       style="stroke:none;stroke-opacity:1" />
    <g
       id="g915">
      <path
         sodipodi:nodetypes="cccc"
         inkscape:connector-curvature="0"
         id="path834"
         d="m 145.37287,186.75132 c -2.31259,-6.45337 -11.64268,-15.54184 -13.16302,-15.10073 -3.43254,2.89006 -3.4076,23.28645 0,25.79151 z"
         style="display:inline;opacity:1;fill:#c1a870;fill-opacity:1;stroke:none;stroke-width:0.26458332px;stroke-linecap:butt;stroke-linejoin:miter;stroke-opacity:1" />
      <path
         style="display:inline;opacity:1;fill:#c1a870;fill-opacity:1;stroke:none;stroke-width:0.26458332px;stroke-linecap:butt;stroke-linejoin:miter;stroke-opacity:1"
         d="m 157.59868,186.75132 c 2.31259,-6.45337 11.64268,-15.54184 13.16302,-15.10073 3.43254,2.89006 3.4076,23.28645 0,25.79151 z"
         id="path832"
         inkscape:connector-curvature="0"
         sodipodi:nodetypes="cccc" />
      <ellipse
         ry="15.431041"
         rx="19.840986"
         cy="199.24619"
         cx="151.48578"
         id="ellipse1061"
         style="display:inline;opacity:1;fill:#c1a870;fill-opacity:1;stroke:none;stroke-width:0.57255203;stroke-miterlimit:4;stroke-dasharray:none;stroke-dashoffset:0;stroke-opacity:1" />
    </g>
  </g>
  <g
     inkscape:groupmode="layer"
     id="layer6"
     inkscape:label="point"
     style="display:none">
    <path
       style="fill:#4d3f38;fill-opacity:1;stroke:none;stroke-width:0.31446385px;stroke-linecap:butt;stroke-linejoin:miter;stroke-opacity:1"
       d="m 151.73516,187.92751 c 3.63496,0.015 5.00696,4.42038 7.54434,6.59138 1.9418,1.6614 5.35409,1.73421 5.87665,4.92366 0.79314,4.84097 -5.9335,11.31464 -13.73865,11.11799 -7.80515,-0.19666 -13.8943,-5.44866 -13.65923,-10.80032 0.15819,-3.60106 5.09065,-4.50028 6.35315,-5.79723 2.26081,-2.32254 3.9888,-6.05063 7.62374,-6.03548 z"
       id="path1055"
       inkscape:connector-curvature="0"
       sodipodi:nodetypes="zaszssz" />
  </g>
  <g
     inkscape:groupmode="layer"
     id="layer7"
     inkscape:label="high white"
     style="display:none">
    <path
       style="fill:#f4f4f4;fill-opacity:1;stroke:none;stroke-width:0.26458332px;stroke-linecap:butt;stroke-linejoin:miter;stroke-opacity:1"
       d="m 156.48631,182.67546 c 2.22197,1.94004 0.21947,6.43392 2.27179,8.55262 1.13251,1.16914 3.23397,0.65049 4.67721,1.40317 1.93995,1.01172 3.16276,3.1496 5.14494,4.07586 2.28734,1.06886 6.86873,-1.25494 7.41673,1.53679 1.39308,7.09695 -4.33587,15.51553 -10.7576,18.84251 -9.69534,5.02299 -23.85696,3.39173 -32.60688,-3.14042 -4.42782,-3.30553 -8.09554,-10.17261 -6.21402,-15.368 1.33345,-3.68201 6.58018,-4.50988 10.3567,-5.54584 2.45096,-0.67234 5.75043,1.39058 7.61717,-0.33409 2.8022,-2.58894 -1.60658,-9.01452 1.40317,-11.35894 2.83323,-2.20692 7.98551,-1.02567 10.69079,1.33634 z"
       id="path1059"
       inkscape:connector-curvature="0"
       sodipodi:nodetypes="aaassaaaaaaa"
       mask="url(#mask1102)" />
  </g>
  <g
     inkscape:groupmode="layer"
     id="layer5"
     inkscape:label="low white"
     style="display:inline">
    <path
       style="fill:#f4f4f4;fill-opacity:1;stroke:none;stroke-width:0.26458332px;stroke-linecap:butt;stroke-linejoin:miter;stroke-opacity:1"
       d="m 151.88668,199.51346 c -4.85538,0.0145 -4.64911,4.58604 -7.09342,6.74853 -2.54449,2.25112 -7.87281,6.47275 -7.87281,6.47275 l 13.41866,7.22481 14.7264,-7.80109 c 0,0 -4.8668,-3.22911 -6.97559,-5.2283 -2.33895,-2.21739 -2.46771,-7.42789 -6.20324,-7.4167 z"
       id="path902"
       inkscape:connector-curvature="0"
       sodipodi:nodetypes="sacccas" />
  </g>
  <g
     inkscape:groupmode="layer"
     id="layer4"
     inkscape:label="Layer 4"
     style="display:inline">
    <ellipse
       style="opacity:1;fill:#f4c73d;fill-opacity:1;stroke:none;stroke-width:0.56499994;stroke-miterlimit:4;stroke-dasharray:none;stroke-dashoffset:0;stroke-opacity:0.9004975"
       id="path837"
       cx="144.85379"
       cy="198.09415"
       rx="1.6704345"
       ry="2.80633" />
    <ellipse
       ry="2.80633"
       rx="1.6704345"
       cy="198.09415"
       cx="157.98857"
       id="ellipse839"
       style="opacity:1;fill:#f4c73d;fill-opacity:1;stroke:none;stroke-width:0.56499994;stroke-miterlimit:4;stroke-dasharray:none;stroke-dashoffset:0;stroke-opacity:0.9004975" />
  </g>
</svg>
