<?xml version="1.0" encoding="UTF-8" standalone="no"?>
<!-- Created with Inkscape (http://www.inkscape.org/) -->

<svg
   xmlns:dc="http://purl.org/dc/elements/1.1/"
   xmlns:cc="http://creativecommons.org/ns#"
   xmlns:rdf="http://www.w3.org/1999/02/22-rdf-syntax-ns#"
   xmlns:svg="http://www.w3.org/2000/svg"
   xmlns="http://www.w3.org/2000/svg"
   xmlns:sodipodi="http://sodipodi.sourceforge.net/DTD/sodipodi-0.dtd"
   xmlns:inkscape="http://www.inkscape.org/namespaces/inkscape"
   width="210mm"
   height="297mm"
   viewBox="0 0 210 297"
   version="1.1"
   id="svg8"
   inkscape:version="0.92.2 (5c3e80d, 2017-08-06)"
   sodipodi:docname="drawing.svg"
   inkscape:export-filename="C:\Users\Azure\Desktop\Home\wide.png"
   inkscape:export-xdpi="308.66968"
   inkscape:export-ydpi="308.66968">
  <defs
     id="defs2">
    <inkscape:path-effect
       effect="spiro"
       id="path-effect1405"
       is_visible="true" />
  </defs>
  <sodipodi:namedview
     id="base"
     pagecolor="#ffffff"
     bordercolor="#666666"
     borderopacity="1.0"
     inkscape:pageopacity="0.0"
     inkscape:pageshadow="2"
     inkscape:zoom="2.1248559"
     inkscape:cx="251.63965"
     inkscape:cy="641.24654"
     inkscape:document-units="mm"
     inkscape:current-layer="g917"
     showgrid="false"
     inkscape:snap-smooth-nodes="true"
     inkscape:snap-intersection-paths="true"
     inkscape:object-nodes="true"
     inkscape:object-paths="false"
     inkscape:snap-nodes="false"
     inkscape:window-width="1920"
     inkscape:window-height="1001"
     inkscape:window-x="-9"
     inkscape:window-y="-9"
     inkscape:window-maximized="1" />
  <metadata
     id="metadata5">
    <rdf:RDF>
      <cc:Work
         rdf:about="">
        <dc:format>image/svg+xml</dc:format>
        <dc:type
           rdf:resource="http://purl.org/dc/dcmitype/StillImage" />
        <dc:title />
      </cc:Work>
    </rdf:RDF>
  </metadata>
  <g
     style="display:inline"
     inkscape:label="ears"
     id="g1434"
     inkscape:groupmode="layer">
    <g
       style="display:inline"
       inkscape:label="wide"
       id="g917"
       inkscape:groupmode="layer">
      <path
         style="display:inline;fill:none;fill-opacity:1;stroke:#000000;stroke-width:0.33347195px;stroke-linecap:butt;stroke-linejoin:miter;stroke-opacity:1"
         d="m 100.76643,130.31108 c -0.879317,-1.11022 -7.550544,1.39883 -13.052171,2.5816 -3.173823,0.68227 -4.886559,3.34936 -3.197821,7.39183 1.688715,4.04247 6.002636,3.91118 8.355404,2.40447 3.622757,-2.31994 8.773948,-11.26768 7.894588,-12.37786 z"
         id="path913"
         inkscape:connector-curvature="0"
         sodipodi:nodetypes="zszsz"
         inkscape:transform-center-x="-7.3179682"
         inkscape:transform-center-y="-2.916962" />
      <path
         inkscape:transform-center-y="-3.0738252"
         inkscape:transform-center-x="7.2225378"
         sodipodi:nodetypes="zszsz"
         inkscape:connector-curvature="0"
         id="path915"
         d="m 60.982827,130.0547 c 0.897381,-1.09567 7.526605,1.52236 13.008114,2.79512 3.16221,0.73417 4.83101,3.42897 3.076273,7.44324 -1.754729,4.01425 -6.065929,3.81229 -8.393687,2.26723 -3.584253,-2.37898 -8.588145,-11.40994 -7.690709,-12.50556 z"
         style="display:inline;fill:none;fill-opacity:1;stroke:#000000;stroke-width:0.33347195px;stroke-linecap:butt;stroke-linejoin:miter;stroke-opacity:1" />
    </g>
    <g
       inkscape:groupmode="layer"
       id="g935"
       inkscape:label="mid wide"
       style="display:none">
      <path
         inkscape:transform-center-y="-4.4420396"
         inkscape:transform-center-x="-6.2454147"
         sodipodi:nodetypes="zszsz"
         inkscape:connector-curvature="0"
         id="path931"
         d="m 98.99073,127.84544 c -1.050497,-0.94987 -7.21612,2.62584 -12.447082,4.70042 -3.017689,1.19675 -4.266739,4.10994 -1.933961,7.81825 2.332756,3.70831 6.565845,2.86682 8.637667,0.99245 3.190172,-2.88605 6.793916,-12.56127 5.743382,-13.51108 z"
         style="display:inline;fill:none;fill-opacity:1;stroke:#000000;stroke-width:0.33347195px;stroke-linecap:butt;stroke-linejoin:miter;stroke-opacity:1" />
      <path
         style="display:inline;fill:none;fill-opacity:1;stroke:#000000;stroke-width:0.33347195px;stroke-linecap:butt;stroke-linejoin:miter;stroke-opacity:1"
         d="m 62.798689,127.61848 c 1.065912,-0.93253 7.17212,2.74373 12.368388,4.90375 2.997669,1.24602 4.198812,4.17929 1.805595,7.84889 -2.393207,3.66958 -6.611948,2.75884 -8.652774,0.85078 -3.142452,-2.93793 -6.58718,-12.67091 -5.521223,-13.60339 z"
         id="path933"
         inkscape:connector-curvature="0"
         sodipodi:nodetypes="zszsz"
         inkscape:transform-center-x="6.1276945"
         inkscape:transform-center-y="-4.584166" />
    </g>
    <g
       inkscape:groupmode="layer"
       id="g923"
       inkscape:label="mid"
       style="display:none">
      <path
         inkscape:transform-center-y="-5.7940996"
         inkscape:transform-center-x="-4.9821539"
         sodipodi:nodetypes="zszsz"
         inkscape:connector-curvature="0"
         id="path919"
         d="m 96.832433,125.70668 c -1.192862,-0.76345 -6.683765,3.78084 -11.500583,6.69033 -2.778783,1.67839 -3.529887,4.75779 -0.617055,8.03022 2.912811,3.27244 6.94896,1.74382 8.683009,-0.44679 2.670085,-3.373 4.627533,-13.51031 3.434642,-14.27372 z"
         style="display:inline;fill:#989898;fill-opacity:1;stroke:#000000;stroke-width:0.33347195px;stroke-linecap:butt;stroke-linejoin:miter;stroke-opacity:1" />
      <path
         style="display:inline;fill:#989898;fill-opacity:1;stroke:#000000;stroke-width:0.33347195px;stroke-linecap:butt;stroke-linejoin:miter;stroke-opacity:1"
         d="m 64.991739,125.51538 c 1.205206,-0.74381 6.620913,3.88985 11.389412,6.87787 2.750905,1.72369 3.451446,4.81498 0.485391,8.03926 -2.966041,3.22426 -6.976609,1.62972 -8.674525,-0.58901 -2.614458,-3.41629 -4.405537,-13.58434 -3.200296,-14.32809 z"
         id="path921"
         inkscape:connector-curvature="0"
         sodipodi:nodetypes="zszsz"
         inkscape:transform-center-x="4.8508625"
         inkscape:transform-center-y="-5.9166176" />
    </g>
    <g
       style="display:none"
       inkscape:label="mid close"
       id="g929"
       inkscape:groupmode="layer"
       sodipodi:insensitive="true">
      <path
         style="display:inline;fill:none;fill-opacity:1;stroke:#000000;stroke-width:0.33347195px;stroke-linecap:butt;stroke-linejoin:miter;stroke-opacity:1"
         d="m 94.35074,123.95348 c -1.302508,-0.5561 -5.968083,4.83213 -10.238637,8.49672 -2.463659,2.114 -2.696214,5.27514 0.716777,8.02193 3.412971,2.74681 7.141472,0.573 8.490185,-1.87377 2.07676,-3.76743 2.334225,-14.08879 1.031694,-14.64484 z"
         id="path925"
         inkscape:connector-curvature="0"
         sodipodi:nodetypes="zszsz"
         inkscape:transform-center-x="-3.6637009"
         inkscape:transform-center-y="-6.9309126" />
      <path
         inkscape:transform-center-y="-7.0302762"
         inkscape:transform-center-x="3.5409486"
         sodipodi:nodetypes="zszsz"
         inkscape:connector-curvature="0"
         id="path927"
         d="m 67.501825,123.80308 c 1.311442,-0.53469 5.888101,4.92927 10.098037,8.66334 2.428687,2.15408 2.609411,5.3186 -0.848126,8.00912 -3.45752,2.6905 -7.149911,0.4559 -8.458345,-2.01264 -2.014751,-3.80095 -2.103055,-14.12517 -0.791589,-14.65979 z"
         style="display:inline;fill:none;fill-opacity:1;stroke:#000000;stroke-width:0.33347195px;stroke-linecap:butt;stroke-linejoin:miter;stroke-opacity:1" />
    </g>
    <g
       inkscape:groupmode="layer"
       id="layer4"
       inkscape:label="close"
       style="display:none"
       sodipodi:insensitive="true">
      <path
         inkscape:transform-center-y="-7.8198957"
         inkscape:transform-center-x="-2.5751641"
         sodipodi:nodetypes="zszsz"
         inkscape:connector-curvature="0"
         id="path1432"
         d="m 91.613717,122.63393 c -1.376427,-0.33351 -5.0887,5.75087 -8.695857,10.07004 -2.080956,2.49164 -1.788587,5.6478 2.030951,7.79362 3.819515,2.14583 7.138103,-0.61354 8.06449,-3.24935 1.426475,-4.05853 -0.02311,-14.28084 -1.399557,-14.61429 z"
         style="display:inline;fill:none;fill-opacity:1;stroke:#000000;stroke-width:0.33347195px;stroke-linecap:butt;stroke-linejoin:miter;stroke-opacity:1" />
      <path
         style="display:inline;fill:none;fill-opacity:1;stroke:#000000;stroke-width:0.33347195px;stroke-linecap:butt;stroke-linejoin:miter;stroke-opacity:1"
         d="m 70.260098,122.52855 c 1.381711,-0.31092 4.993785,5.83348 8.529686,10.21118 2.03985,2.52539 1.695805,5.67633 -2.158383,7.7593 -3.854163,2.08295 -7.127093,-0.73044 -8.010161,-3.38107 -1.359782,-4.08135 0.257114,-14.27855 1.638831,-14.58939 z"
         id="path1442"
         inkscape:connector-curvature="0"
         sodipodi:nodetypes="zszsz"
         inkscape:transform-center-x="2.4855308"
         inkscape:transform-center-y="-7.8932381" />
    </g>
  </g>
  <g
     inkscape:groupmode="layer"
     id="layer3"
     inkscape:label="head"
     style="display:inline">
    <g
       style="display:none;opacity:1"
       inkscape:label="low"
       id="g835"
       inkscape:groupmode="layer">
      <path
         sodipodi:nodetypes="zsszscz"
         inkscape:connector-curvature="0"
         id="path833"
         d="m 80.84903,148.39814 c -3.638812,0 -7.96682,-1.38214 -9.177653,-5.55615 -0.545114,-1.87913 -1.035458,-5.76603 2.706536,-9.28239 1.544814,-1.45166 3.647565,-2.90147 6.471117,-2.90147 2.823552,0 4.926303,1.44981 6.471117,2.90147 3.741994,3.51636 3.25165,7.40326 2.706536,9.28239 -1.713677,4.18688 -5.538841,5.55615 -9.177653,5.55615 z"
         style="fill:#989898;fill-opacity:1;stroke:#000000;stroke-width:0.26458332px;stroke-linecap:butt;stroke-linejoin:miter;stroke-opacity:1" />
    </g>
    <g
       inkscape:groupmode="layer"
       id="g851"
       inkscape:label="mid low"
       style="display:none;opacity:1"
       sodipodi:insensitive="true">
      <path
         sodipodi:nodetypes="sszsszs"
         inkscape:connector-curvature="0"
         id="path872"
         d="m 91.530073,143.14267 c 0.753617,-3.05561 -0.267481,-6.53443 -3.842431,-9.6833 -1.590759,-1.40116 -4.148696,-2.80124 -6.838612,-2.80124 -2.689917,0 -5.247854,1.40008 -6.838613,2.80124 -3.57495,3.14887 -4.596048,6.62769 -3.842431,9.6833 1.302293,5.28026 7.042232,5.7566 10.681044,5.7566 3.638811,0 9.37875,-0.47634 10.681043,-5.7566 z"
         style="fill:none;stroke:#000000;stroke-width:0.26458332px;stroke-linecap:butt;stroke-linejoin:miter;stroke-opacity:1" />
    </g>
    <g
       inkscape:groupmode="layer"
       id="g843"
       inkscape:label="mid"
       style="display:none;opacity:1"
       sodipodi:insensitive="true">
      <path
         sodipodi:nodetypes="zsszcsz"
         inkscape:connector-curvature="0"
         id="path853"
         d="m 80.84903,149.4004 c 3.638812,0 8.804102,0.36489 10.647635,-2.81664 2.125914,-3.66885 2.042684,-8.96136 -3.040623,-13.05757 -2.110082,-1.70034 -4.892202,-2.86806 -7.607012,-2.86806 -2.71481,0 -5.266404,1.02142 -7.607012,2.86806 -5.083307,4.09621 -5.166537,9.38872 -3.040623,13.05757 1.843533,3.18153 7.008823,2.81664 10.647635,2.81664 z"
         style="fill:#ffffff;fill-opacity:1;stroke:#000000;stroke-width:0.26458332px;stroke-linecap:butt;stroke-linejoin:miter;stroke-opacity:1" />
    </g>
    <g
       style="display:none"
       inkscape:label="mid high"
       id="g847"
       inkscape:groupmode="layer"
       sodipodi:insensitive="true">
      <path
         sodipodi:nodetypes="sszsszs"
         inkscape:connector-curvature="0"
         id="path845"
         d="m 67.996421,145.74854 c -1.542089,-4.13356 0.68366,-8.8976 3.708797,-11.58758 2.716866,-2.41586 6.32026,-3.50283 9.143812,-3.50283 2.823552,0 6.426946,1.08697 9.143812,3.50283 3.025137,2.68998 5.250886,7.45402 3.708797,11.58758 -2.197964,5.89163 -9.213797,4.25322 -12.852609,4.25322 -3.638812,0 -10.654645,1.63841 -12.852609,-4.25322 z"
         style="fill:none;stroke:#000000;stroke-width:0.26458332px;stroke-linecap:butt;stroke-linejoin:miter;stroke-opacity:1" />
    </g>
    <g
       inkscape:groupmode="layer"
       id="layer2"
       inkscape:label="high"
       style="display:inline;opacity:1">
      <path
         style="fill:#989898;fill-opacity:1;stroke:#000000;stroke-width:0.26458332px;stroke-linecap:butt;stroke-linejoin:miter;stroke-opacity:1"
         d="m 66.899427,146.95249 c -1.870801,-4.5631 -0.139213,-9.77237 4.218441,-13.10941 4.073929,-3.11976 8.088786,-3.18495 9.731162,-3.18495 1.642376,0 5.657233,0.0652 9.731162,3.18495 4.357654,3.33704 6.089242,8.54631 4.218441,13.10941 -2.671259,6.51551 -13.082049,3.5838 -13.949603,3.5838 -0.867554,0 -11.278344,2.93171 -13.949603,-3.5838 z"
         id="path827"
         inkscape:connector-curvature="0"
         sodipodi:nodetypes="sszsszs" />
    </g>
  </g>
</svg>
