<?xml version="1.0" encoding="UTF-8" standalone="no"?>
<svg
   xmlns:dc="http://purl.org/dc/elements/1.1/"
   xmlns:cc="http://creativecommons.org/ns#"
   xmlns:rdf="http://www.w3.org/1999/02/22-rdf-syntax-ns#"
   xmlns:svg="http://www.w3.org/2000/svg"
   xmlns="http://www.w3.org/2000/svg"
   version="1.1"
   viewBox="0 0 38.317448 114.49733"
   height="114.49733mm"
   width="38.317448mm">
  <defs />
  <g
     id="genes">
    <g
       id="rightGene">
      <path
         d="m 20.58067,35.364782 c 0,0 -0.278342,6.98523 8.86793,7.00083 9.14629,0.0156 8.86793,-7.00083 8.86793,-7.00083 V 6.9939219 c 0,0 0.27836,-7.00949997 -8.86793,-6.993899971984 C 20.302328,0.01562193 20.58067,6.9939219 20.58067,6.9939219 Z" />
      <path
         d="m 20.58067,48.622572 c 0,0 -0.278342,-7.55415 8.86793,-7.56975 9.14629,-0.0156 8.86793,7.56975 8.86793,7.56975 v 58.874068 c 0,0 0.27836,7.01626 -8.86793,7.00066 -9.146272,-0.0156 -8.86793,-7.00066 -8.86793,-7.00066 z" />
    </g>
    <g
       id="leftGene">
      <path
         d="m 9.1619538e-4,35.364782 c 0,0 -0.27834199538,6.98523 8.86793000462,7.00083 9.1462898,0.0156 8.8679298,-7.00083 8.8679298,-7.00083 V 6.9939219 c 0,0 0.27836,-7.00949997 -8.8679298,-6.993899971984 C -0.2774258,0.01562193 9.1619538e-4,6.9939219 9.1619538e-4,6.9939219 Z" />
      <path
         d="m 9.1619538e-4,48.622572 c 0,0 -0.27834199538,-7.55415 8.86793000462,-7.56975 9.1462898,-0.0156 8.8679298,7.56975 8.8679298,7.56975 v 58.874068 c 0,0 0.27836,7.01626 -8.8679298,7.00066 -9.146272,-0.0156 -8.86793000462,-7.00066 -8.86793000462,-7.00066 z" />
    </g>
  </g>
  <metadata
     id="metadata1537">
    <rdf:RDF>
      <cc:Work
         rdf:about="">
        <dc:title></dc:title>
      </cc:Work>
    </rdf:RDF>
  </metadata>
</svg>
