<svg xmlns="http://www.w3.org/2000/svg" xmlns:xlink="http://www.w3.org/1999/xlink" viewBox="0 0 376.5 334.4" id="cat"><style id="style1003">.st0{fill:#989898;stroke:#000}.st3,.st4{display:none}.st4,.st5{fill:#989898;stroke:#000;stroke-miterlimit:10}.st11{display:none;clip-path:url(#_x35__6_)}.st13{display:inline}.st15{display:none;clip-path:url(#_x35__6_);fill:#f7f4e9}.st16,.st17,.st19{display:inline;fill:#989898;stroke:#000;stroke-miterlimit:10}.st17,.st19{fill:#9db400}.st19{display:none;fill:none}</style><symbol viewBox="-64 -75.8 127.9 151.5" id="Ear"><path d="M-60 74.6C-49.2 81.2-.8 39.7 41.9 13c24.6-15.4 30.9-43.1 4.3-71.9-26.5-28.9-62.4-14.6-77.6 5.3C-54.8-23.1-70.8 67.9-60 74.6z" class="st0" id="path921_8_"/></symbol><symbol viewBox="-2.2 -2.2 4.3 4.3" id="eye_shine"><circle id="circle1009" r="2.2" fill="#fff"/></symbol><symbol viewBox="-75.5 -69.4 151 138.9" id="point"><path d="M0 69.4c3.6 0 11.1-1.5 18.9-9 13-12.4 15-32.4 20.3-37.7 8.1-8.2 36.1-11.2 36.3-31.4.1-9.2-14.7-35.2-33.1-45.5C22.2-65.4 11.3-69.4 0-69.4s-22.2 4-42.4 15.3C-60.8-43.9-75.6-17.9-75.5-8.7c.2 20.3 28.2 23.2 36.3 31.4 5.3 5.3 7.3 25.3 20.3 37.7 7.8 7.5 15.3 9 18.9 9z" id="point_3_" fill="#b47a00"/></symbol><symbol viewBox="-6.2 -10.1 12.3 20.3" id="pupil"><path id="path1014" d="M0-10.1c2 0 6.2 3.2 6.2 10.1S1.8 10.1 0 10.1c-1.9 0-6.1-3.2-6.1-10.1S-1.9-10.1 0-10.1z"/></symbol><g id="ears_1_"><g class="st3" id="_x31_"><use transform="scale(1 -1) rotate(19 516 191.62)" y="-75.8" x="-64" id="left_4_" height="151.5" width="127.9" xlink:href="#Ear" overflow="visible"/><use transform="rotate(-161 154.87 55.07)" y="-75.8" x="-64" id="right_4_" height="151.5" width="127.9" xlink:href="#Ear" overflow="visible"/></g><g class="st3" id="_x32_"><use transform="scale(1 -1) rotate(8.04 1092.7 621.47)" y="-75.8" x="-64" id="left_3_" height="151.5" width="127.9" xlink:href="#Ear" overflow="visible"/><use transform="rotate(-171.97 144.57 63.53)" y="-75.8" x="-64" id="right_3_" height="151.5" width="127.9" xlink:href="#Ear" overflow="visible"/></g><g id="_x33_"><use transform="matrix(1 0 0 -1 104.85 139.24)" y="-75.8" x="-64" id="left_2_" height="151.5" width="127.9" xlink:href="#Ear" overflow="visible"/><use transform="rotate(180 134.41 69.62)" y="-75.8" x="-64" id="right_2_" height="151.5" width="127.9" xlink:href="#Ear" overflow="visible"/></g><g class="st3" id="_x34_"><use transform="scale(1 -1) rotate(-9.9 -704.64 -728.62)" y="-75.8" x="-64" id="left_1_" height="151.5" width="127.9" xlink:href="#Ear" overflow="visible"/><use transform="rotate(170.1 124.13 77.23)" y="-75.8" x="-64" id="right_1_" height="151.5" width="127.9" xlink:href="#Ear" overflow="visible"/></g><g class="st3" id="_x35_"><use transform="scale(1 -1) rotate(-18 -339.02 -457.06)" y="-75.8" x="-64" id="left" height="151.5" width="127.9" xlink:href="#Ear" overflow="visible"/><use transform="scale(-1) rotate(-18 -525.89 722.9)" y="-75.8" x="-64" id="right" height="151.5" width="127.9" xlink:href="#Ear" overflow="visible"/></g></g><g id="head"><path d="M186.7 269.4c-32.6 0-71.3-12.4-82.1-49.7-4.9-16.8-9.3-51.6 24.2-83.1 13.8-13 32.6-26 57.9-26 25.3 0 44.1 13 57.9 26 33.5 31.5 29.1 66.2 24.2 83.1-15.3 37.5-49.5 49.7-82.1 49.7z" class="st4" id="_x31__1_"/><path d="M282.3 222.4c6.7-27.3-2.4-58.5-34.4-86.6-14.2-12.5-37.1-25.1-61.2-25.1s-47 12.5-61.2 25.1c-32 28.2-41.1 59.3-34.4 86.6 11.7 47.2 63 51.5 95.6 51.5 32.6 0 83.9-4.2 95.6-51.5z" class="st4" id="_x32__1_"/><path d="M186.7 278.4c32.6 0 78.8 3.3 95.3-25.2 19-32.8 18.3-80.2-27.2-116.8-18.9-15.2-43.8-25.7-68.1-25.7-24.3 0-47.1 9.1-68.1 25.7-45.5 36.7-46.2 84-27.2 116.8 16.5 28.5 62.8 25.2 95.3 25.2z" class="st5" id="_x33__1_"/><path d="M71.7 245.7c-13.8-37 6.1-79.6 33.2-103.7 24.3-21.6 56.6-31.3 81.8-31.3s57.5 9.7 81.8 31.3c27.1 24.1 47 66.7 33.2 103.7-19.7 52.7-82.4 38.1-115 38.1s-95.3 14.7-115-38.1z" class="st4" id="_x34__1_"/><path d="M61.9 256.5c-16.7-40.8-1.2-87.4 37.7-117.3 36.5-27.9 72.4-28.5 87.1-28.5 14.7 0 50.6.6 87.1 28.5 39 29.9 54.5 76.5 37.7 117.3-23.9 58.3-117.1 32.1-124.8 32.1-7.7 0-100.9 26.2-124.8-32.1z" class="st4" id="_x35__4_"/></g><g id="markings_1_"><defs id="defs1040"><path d="M187.2 128.6c3.6 0 11.1 1.5 18.9 9 13 12.4 15 32.4 20.3 37.7 8.1 8.2 36.1 11.2 36.3 31.4.1 9.2-14.7 35.2-33.1 45.5-20.2 11.3-31.2 15.3-42.4 15.3s-22.2-4-42.4-15.3c-18.3-10.2-33.1-36.2-33.1-45.5.2-20.3 28.2-23.2 36.3-31.4 5.3-5.3 7.3-25.3 20.3-37.7 7.8-7.4 15.4-9 18.9-9z" id="point_5_"/></defs><defs id="defs1043"><path d="M186.7 269.4c-32.6 0-71.3-12.4-82.1-49.7-4.9-16.8-9.3-51.6 24.2-83.1 13.8-13 32.6-26 57.9-26 25.3 0 44.1 13 57.9 26 33.5 31.5 29.1 66.2 24.2 83.1-15.3 37.5-49.5 49.7-82.1 49.7z" id="_x31__5_"/></defs><defs id="defs1046"><path d="M282.3 222.4c6.7-27.3-2.4-58.5-34.4-86.6-14.2-12.5-37.1-25.1-61.2-25.1s-47 12.5-61.2 25.1c-32 28.2-41.1 59.3-34.4 86.6 11.7 47.2 63 51.5 95.6 51.5 32.6 0 83.9-4.2 95.6-51.5z" id="_x32__5_"/></defs><defs id="defs1049"><path d="M186.7 278.4c32.6 0 78.8 3.3 95.3-25.2 19-32.8 18.3-80.2-27.2-116.8-18.9-15.2-43.8-25.7-68.1-25.7-24.3 0-47.1 9.1-68.1 25.7-45.5 36.7-46.2 84-27.2 116.8 16.5 28.5 62.8 25.2 95.3 25.2z" id="_x33__5_"/></defs><defs id="defs1052"><path d="M71.7 245.7c-13.8-37 6.1-79.6 33.2-103.7 24.3-21.6 56.6-31.3 81.8-31.3s57.5 9.7 81.8 31.3c27.1 24.1 47 66.7 33.2 103.7-19.7 52.7-82.4 38.1-115 38.1s-95.3 14.7-115-38.1z" id="_x34__5_"/></defs><defs id="defs1055"><path d="M61.9 256.5c-16.7-40.8-1.2-87.4 37.7-117.3 36.5-27.9 72.4-28.5 87.1-28.5 14.7 0 50.6.6 87.1 28.5 39 29.9 54.5 76.5 37.7 117.3-23.9 58.3-117.1 32.1-124.8 32.1-7.7 0-100.9 26.2-124.8-32.1z" id="_x35__5_"/></defs><clipPath id="point_1_"/><clipPath clip-path="url(#point_1_)" id="_x31__6_"/><clipPath clip-path="url(#_x31__6_)" id="_x32__6_"/><clipPath clip-path="url(#_x32__6_)" id="_x33__6_"><use id="use1066" xlink:href="#_x33__5_" overflow="visible"/></clipPath><clipPath clip-path="url(#_x33__6_)" id="_x34__6_"/><clipPath clip-path="url(#_x34__6_)" id="_x35__6_"/><g id="g1077" clip-path="url(#_x35__6_)" class="st11"><use id="use1075" transform="matrix(1 0 0 -1 187.22 198.08)" y="-69.4" x="-75.5" height="138.9" width="151" xlink:href="#point" overflow="visible"/></g><path clip-path="url(#_x35__6_)" d="M187.2 165.5s-4.6-3.8-6.9-15c-1.2-5.7-2.7-14.2-2.7-14.2s-4.3 8.2-4.3 12.3c0 6.5 3.3 15 3.3 15s-4.8-2.7-7.5-7.5c-1.4-2.5-1.8-8.3-3-13.7-1.1-4.9-3.1-9.7-3.1-9.7s-8.8 8-12 24.5c-1.3 6.6 1.1 15.8 1.1 15.8s-7.4-2.5-8.1-15.5c-.3-5.3 3.4-20 2.2-25.8-1.3-5.8-10.8-17-10.8-17L187.2 95l51.9 19.8s-9.6 11.2-10.8 17c-1.3 5.8 2.5 20.5 2.2 25.8-.7 13-8.1 15.5-8.1 15.5s2.3-9.3 1.1-15.8c-3.2-16.5-12-24.5-12-24.5s-2 4.7-3.1 9.7c-1.2 5.4-1.6 11.1-3 13.7-2.7 4.8-7.5 7.5-7.5 7.5s3.3-8.5 3.3-15c0-4.2-4.3-12.3-4.3-12.3s-1.5 8.5-2.7 14.2c-2.3 11.1-6.9 14.9-7 14.9zm142.5 53.8s-36.7-9.8-47.2-16.7c-4-2.6-7.5-11.3-11.7-13.3-4.3-2.1-13.3-3.7-19.5-2.3-5.6 1.2-21.9 11-21.9 11s18.8-4.4 25.8-5c3.5-.3 10.4 2.8 13.2 5 3.3 2.6 6.2 11.2 9.3 14 4.7 4.1 22.3 10.7 22.3 10.7s-9.9-1.1-13.1-1.9c-4.4-1.1-12.7-4.8-17.2-5.3-8.6-.9-18.3 1.7-18.3 1.7s15.2 2.6 20 4.2c10.6 3.4 31.6 11.1 41.3 16.7 5.6 3.2 20.4 16 20.4 16l-3.4-34.8zM41.4 253.9s14.8-12.8 20.4-16c9.7-5.6 30.7-13.3 41.3-16.7 4.8-1.5 20-4.2 20-4.2s-9.7-2.5-18.3-1.7c-4.6.5-12.8 4.2-17.2 5.3-3.2.8-13.1 1.9-13.1 1.9s17.6-6.6 22.3-10.7c3.2-2.8 6-11.4 9.3-14 2.8-2.2 9.7-5.3 13.2-5 7.1.7 25.8 5 25.8 5s-16.4-9.7-21.9-11c-6.2-1.4-15.2.3-19.5 2.3-4.3 2.1-7.8 10.7-11.7 13.3-10.4 6.9-47.2 16.7-47.2 16.7l-3.4 34.8z" class="st11" id="tabby_1_"/><g clip-path="url(#_x35__6_)" class="st11" id="tortie_1_"><path d="M138.8 160.5v-6.7l-1.3-12.8 3-9.5-1.5-6.2 17.6-14.6 20.3-7.5 19.3 4-8.1 13-5.9 2.7-2 5.2-17.8 7.3-5-2.7-6.2 1.3-3 5.2 1.3 5.1-3.7 11.5-7 4.7zm14 43.9l.6 6.1 4.6 3.1 14.4-21.8-2.5-9.1 3.5-4.8-1.3-8.1-6 .9-6.3 2.6-2.3 4.3-5.3 1.9-.6 9.9-16.9-2.1-6.1 5.4 3 7.1 8 9.3 13.2-4.7zm63.5 7.9l5.5-1.4 3.6 5.5 24 7.4 4.4 10.9 5.1 2.9 3.9-12.9 6.6 2.3.6-3.4-5.5-16.6-5.5-2-2.6-7.5-5.7-.3-13.5-2.3.8-6.8-8.5-4.8 4.5-6-3-.8-1.1-3.8 16.9-18.8 12-1.8 8.5 7.5 2.6 12.5-4 6.5 1 8.9 6.9 4.3.6-3.5 13.9-1.1 2 10.6 11-.8 4.6-8-2.5-4.4 2.6-5.3 9.3-4.8-51.4-54.3-55.9-14 15.4 17.3-2.4 2.4 2.4 6.4-9.9 11.1 3.1 10.6 5.3 6.1-14.8 10-4.3-2.5-2.8 8.8 6.5 9.3-3.9 2.9-2 7.8 4.7 6.6 7.1-.7 3.9 10zm-37.7 24.1l-4.3 7.3-9.7.7v8.2l5.3 2.4v3.8l11.5 2.2 1 6.2 13 4.7 6.7-2.2v3.8l-4 6.5 5 5.5 7.3-2-1.3 6.7 8.5-6.7 4.3.3 3.5-2.5 9.7 2 5.8-11.8-3-4.2-11.8.8 2-4.8 12.8-6.8-1.2-6.3-9.8 2.8-4.3-3.9-16.8-1.3-12.5-11.3-3.5 5-14.2-5.1zm-76.3-46.3l-3.7 9.3-4.5-1.3-24.7 16.5 14.7 19.2-5.3 9.3 8.7 7.2 1.5 8.3 23.2 23.7 9.2-.2 12.2 3.3 9.3-9.1-1.2-5.6-7.7-1.2 2-6.3-5-10.1-9.3 1.5-10.3-5.2v-13l14.8-12.5-10.3-17.2-1.1-6.2-2.2-2.2 6.5-8.1-5.3-10.1-11.5 10z" id="red" fill="#b47a00"/><g id="torbie"><defs id="defs1082"><path d="M138.8 160.5v-6.7l-1.3-12.8 3-9.5-1.5-6.2 17.6-14.6 20.3-7.5 19.3 4-8.1 13-5.9 2.7-2 5.2-17.8 7.3-5-2.7-6.2 1.3-3 5.2 1.3 5.1-3.7 11.5-7 4.7zm14 43.9l.6 6.1 4.6 3.1 14.4-21.8-2.5-9.1 3.5-4.8-1.3-8.1-6 .9-6.3 2.6-2.3 4.3-5.3 1.9-.6 9.9-16.9-2.1-6.1 5.4 3 7.1 8 9.3 13.2-4.7zm63.5 7.9l5.5-1.4 3.6 5.5 24 7.4 4.4 10.9 5.1 2.9 3.9-12.9 6.6 2.3.6-3.4-5.5-16.6-5.5-2-2.6-7.5-5.7-.3-13.5-2.3.8-6.8-8.5-4.8 4.5-6-3-.8-1.1-3.8 16.9-18.8 12-1.8 8.5 7.5 2.6 12.5-4 6.5 1 8.9 6.9 4.3.6-3.5 13.9-1.1 2 10.6 11-.8 4.6-8-2.5-4.4 2.6-5.3 9.3-4.8-51.4-54.3-55.9-14 15.4 17.3-2.4 2.4 2.4 6.4-9.9 11.1 3.1 10.6 5.3 6.1-14.8 10-4.3-2.5-2.8 8.8 6.5 9.3-3.9 2.9-2 7.8 4.7 6.6 7.1-.7 3.9 10zm-37.7 24.1l-4.3 7.3-9.7.7v8.2l5.3 2.4v3.8l11.5 2.2 1 6.2 13 4.7 6.7-2.2v3.8l-4 6.5 5 5.5 7.3-2-1.3 6.7 8.5-6.7 4.3.3 3.5-2.5 9.7 2 5.8-11.8-3-4.2-11.8.8 2-4.8 12.8-6.8-1.2-6.3-9.8 2.8-4.3-3.9-16.8-1.3-12.5-11.3-3.5 5-14.2-5.1zm-76.3-46.3l-3.7 9.3-4.5-1.3-24.7 16.5 14.7 19.2-5.3 9.3 8.7 7.2 1.5 8.3 23.2 23.7 9.2-.2 12.2 3.3 9.3-9.1-1.2-5.6-7.7-1.2 2-6.3-5-10.1-9.3 1.5-10.3-5.2v-13l14.8-12.5-10.3-17.2-1.1-6.2-2.2-2.2 6.5-8.1-5.3-10.1-11.5 10z" id="mask_3_"/></defs><clipPath class="st13" id="mask_4_"><use id="use1084" xlink:href="#mask_3_" overflow="visible"/></clipPath><path clip-path="url(#mask_4_)" d="M187.2 165.5s-4.6-3.8-6.9-15c-1.2-5.7-2.7-14.2-2.7-14.2s-4.3 8.2-4.3 12.3c0 6.5 3.3 15 3.3 15s-4.8-2.7-7.5-7.5c-1.4-2.5-1.8-8.3-3-13.7-1.1-4.9-3.1-9.7-3.1-9.7s-8.8 8-12 24.5c-1.3 6.6 1.1 15.8 1.1 15.8s-7.4-2.5-8.1-15.5c-.3-5.3 3.4-20 2.2-25.8-1.3-5.8-10.8-17-10.8-17L187.2 95l51.9 19.8s-9.6 11.2-10.8 17c-1.3 5.8 2.5 20.5 2.2 25.8-.7 13-8.1 15.5-8.1 15.5s2.3-9.3 1.1-15.8c-3.2-16.5-12-24.5-12-24.5s-2 4.7-3.1 9.7c-1.2 5.4-1.6 11.1-3 13.7-2.7 4.8-7.5 7.5-7.5 7.5s3.3-8.5 3.3-15c0-4.2-4.3-12.3-4.3-12.3s-1.5 8.5-2.7 14.2c-2.3 11.1-6.9 14.9-7 14.9zm142.5 53.8s-36.7-9.8-47.2-16.7c-4-2.6-7.5-11.3-11.7-13.3-4.3-2.1-13.3-3.7-19.5-2.3-5.6 1.2-21.9 11-21.9 11s18.8-4.4 25.8-5c3.5-.3 10.4 2.8 13.2 5 3.3 2.6 6.2 11.2 9.3 14 4.7 4.1 22.3 10.7 22.3 10.7s-9.9-1.1-13.1-1.9c-4.4-1.1-12.7-4.8-17.2-5.3-8.6-.9-18.3 1.7-18.3 1.7s15.2 2.6 20 4.2c10.6 3.4 31.6 11.1 41.3 16.7 5.6 3.2 20.4 16 20.4 16l-3.4-34.8zM41.4 253.9s14.8-12.8 20.4-16c9.7-5.6 30.7-13.3 41.3-16.7 4.8-1.5 20-4.2 20-4.2s-9.7-2.5-18.3-1.7c-4.6.5-12.8 4.2-17.2 5.3-3.2.8-13.1 1.9-13.1 1.9s17.6-6.6 22.3-10.7c3.2-2.8 6-11.4 9.3-14 2.8-2.2 9.7-5.3 13.2-5 7.1.7 25.8 5 25.8 5s-16.4-9.7-21.9-11c-6.2-1.4-15.2.3-19.5 2.3-4.3 2.1-7.8 10.7-11.7 13.3-10.4 6.9-47.2 16.7-47.2 16.7l-3.4 34.8z" id="tabby_2_"/></g></g><path clip-path="url(#_x35__6_)" class="st15" id="low_white_2_" d="M30.7 268.3l95.9-25.3 27-19.3 1.7-7 22.6-26.4V185l5-8.6 3.8-23 4.2 16-1.5 11.6 9 7.8 17.5 28.5 23 19 89.3 3.7v42.7L186.7 328z"/><path clip-path="url(#_x35__6_)" d="M135 100.1s-3 27-7.3 31.3c-4.3 4.3-3.1 3.4-4.3 4.3-8.3 6.3-1.6 19.7-3.5 26.9-1.1 4.1-14.6 3.3-17.1 4.6-19.1 9.7-46.8 10.1-46.8 10.1L32.3 287l154.4 34.7L322.9 285l5.5-98s-52.7-15.6-68.8-10c-4 1.4-6.6 9.7-10.7 11-3.2 1.1-11.8 1-13.3-2-.7-1.3 3-2.4 2.8-3.9-.3-2.9-6.4-7.8-7.5-10.5-3.5-8.1.3-20-3-31.7-2.7-9.4 21.7-36 21.7-36L135 100.1z" class="st15" id="high_white_2_"/></g><g id="muzzle"><g class="st3" id="_x31__3_"><path d="M160.7 248.6c2.6 6.1 17 11.5 26.5 11.5 9.6 0 23.9-5.4 26.5-11.5l-26.5-25.9-26.5 25.9z" class="st16" id="jaw_4_"/><path d="M187.2 233c-11 3.5-22.2 17.9-28.7 19.4-11.2 2.7-21.7-7-18.7-17.4 2.6-8.8 24.2-29.4 30.1-39.4 5.8-9.8 12.2-10.3 17.3-10.5h.1c5.1.2 11.5.8 17.3 10.5 5.9 10 27.5 30.6 30.1 39.4 3 10.3-7.5 20.1-18.7 17.4-6.5-1.5-17.7-15.9-28.8-19.4zm0-17.8v18.4" class="st16" id="muzzle_5_"/><path d="M187.2 215.2c3.9 0 3.1-3.7 3.7-5.1.6-1.5 4.7 0 5.8-1.1.7-.7 1.1-2.3.4-3-1.7-1.9-7.3-1.7-9.9-1.7-2.6 0-8.2-.2-9.9 1.7-.6.7-.2 2.3.4 3 1.1 1.1 5.2-.4 5.8 1.1.6 1.4-.2 5.1 3.7 5.1z" class="st13" id="nose_4_"/></g><g class="st3" id="_x32__3_"><path d="M160.7 255.6c2.6 6.1 17 11.5 26.5 11.5 9.6 0 23.9-5.4 26.5-11.5L187.2 238l-26.5 17.6z" class="st16" id="jaw_3_"/><path d="M157.9 258.9c-10.5-1-19.3-12.1-16.6-22 2.4-8.8 26.2-36 33.5-43.9 5.3-5.6 8.9-6.5 12.4-6.5s7.1.9 12.4 6.5c7.3 7.9 31.1 35 33.5 43.9 2.7 9.9-6.1 21-16.6 22-6.2.6-29.3-18.4-29.3-18.4s-23.1 19-29.3 18.4zm29.3-30.5v12.1" class="st16" id="muzzle_4_"/><path d="M187.2 228.4c3.9 0 3.1-3.7 3.7-5.1.6-1.5 4.7 0 5.8-1.1.7-.7 1.1-2.3.4-3-1.7-1.9-7.3-1.7-9.9-1.7s-8.2-.2-9.9 1.7c-.6.7-.2 2.3.4 3 1.1 1.1 5.2-.4 5.8 1.1.6 1.4-.2 5.1 3.7 5.1z" class="st13" id="nose_3_"/></g><g id="_x33__3_"><path d="M160.7 264.8c2.6 6.1 17 11.5 26.5 11.5 9.6 0 23.9-5.4 26.5-11.5L187.2 251l-26.5 13.8z" class="st5" id="jaw"/><path d="M159.7 264.8c-10.5-1-21.5-11.4-18.8-21.2 2.4-8.8 29.1-43.8 35.3-52.7 3.3-4.7 11.1-4.2 11.1-4.2s7.8-.5 11.1 4.2c6.2 8.9 32.9 43.9 35.3 52.7 2.7 9.9-8.3 20.2-18.8 21.2-6.2.6-27.5-9.9-27.5-9.9s-21.5 10.5-27.7 9.9zm27.5-21.8v11.9" class="st5" id="muzzle_1_"/><path d="M187.2 243c3.9 0 3.1-3.7 3.7-5.1.6-1.5 4.7 0 5.8-1.1.7-.7 1.1-2.3.4-3-1.7-1.9-7.3-1.7-9.9-1.7s-8.2-.2-9.9 1.7c-.6.7-.2 2.3.4 3 1.1 1.1 5.2-.4 5.8 1.1.6 1.4-.2 5.1 3.7 5.1z" id="nose"/></g><g class="st3" id="_x34__3_"><path d="M160.7 274.6c2.6 6.1 17 11.5 26.5 11.5 9.6 0 23.9-5.4 26.5-11.5l-26.5-13.8-26.5 13.8z" class="st16" id="jaw_2_"/><path d="M160.7 274.1c-10.5-1-22.1-13.2-19.4-23.1 2.4-8.8 24.5-42.7 31-53.6 5.3-8.7 10.3-9.8 14.9-9.8s9.6 1.1 14.9 9.8c6.6 10.9 28.6 44.7 31 53.6 2.7 9.9-8.9 22.1-19.4 23.1-6.2.6-26.5-8.3-26.5-8.3s-20.3 8.9-26.5 8.3zm26.5-19v10.8" class="st16" id="muzzle_3_"/><path d="M187.2 255.1c3.9 0 3.1-3.7 3.7-5.1.6-1.5 4.7 0 5.8-1.1.7-.7 1.1-2.3.4-3-1.7-1.9-7.3-1.7-9.9-1.7-2.6 0-8.2-.2-9.9 1.7-.6.7-.2 2.3.4 3 1.1 1.1 5.2-.4 5.8 1.1.6 1.4-.2 5.1 3.7 5.1z" class="st13" id="nose_2_"/></g><g class="st3" id="_x35__3_"><path d="M187.2 270.7l22.8 12.1c-2.6 6.1-13.3 11.4-22.8 11.4-9.6 0-20.2-5.4-22.8-11.4l22.8-12.1z" class="st16" id="jaw_1_"/><path d="M161.5 283c-13.4-.6-22.8-16-18.7-27.9 3-8.7 27.3-48.5 31.8-58.3 3.7-8.2 12.6-8 12.6-8s8.8-.2 12.6 8c4.5 9.8 28.9 49.6 31.8 58.3 4.1 11.9-5.3 27.3-18.7 27.9-6.2.3-25.7-7.3-25.7-7.3s-19.5 7.6-25.7 7.3zm25.7-16v8.8" class="st16" id="muzzle_2_"/><path d="M187.2 267c3.9 0 3.1-3.7 3.7-5.1.6-1.5 4.7 0 5.8-1.1.7-.7 1.1-2.3.4-3-1.7-1.9-7.3-1.7-9.9-1.7s-8.2-.2-9.9 1.7c-.6.7-.2 2.3.4 3 1.1 1.1 5.2-.4 5.8 1.1.6 1.4-.2 5.1 3.7 5.1z" class="st13" id="nose_1_"/></g></g><g id="eyes"><g class="st3" id="_x31__2_"><path d="M143.6 206.5c-10.9-5.7-11.9-12.9-11.9-12.9s6-5.3 17.8-.9 13.5 13.8 13.5 13.8-10.4 4.8-19.4 0zm87.2 0c10.9-5.7 11.9-12.9 11.9-12.9s-6-5.3-17.8-.9-13.5 13.8-13.5 13.8 10.4 4.8 19.4 0z" class="st17" id="eyes_5_"/><g class="st13" id="inner_5_"><defs id="defs1116"><path d="M143.6 206.5c-10.9-5.7-11.9-12.9-11.9-12.9s6-5.3 17.8-.9 13.5 13.8 13.5 13.8-10.4 4.8-19.4 0zm87.2 0c10.9-5.7 11.9-12.9 11.9-12.9s-6-5.3-17.8-.9-13.5 13.8-13.5 13.8 10.4 4.8 19.4 0z" id="mask_1_"/></defs><clipPath id="mask_5_"><use id="use1118" xlink:href="#mask_1_" overflow="visible"/></clipPath><g id="g1122" clip-path="url(#mask_5_)"><use transform="matrix(1 0 0 -1 148 199.37)" y="-10.1" x="-6.2" id="left_pupil_4_" height="20.3" width="12.3" xlink:href="#pupil" overflow="visible"/></g><g id="g1125" clip-path="url(#mask_5_)"><use transform="matrix(1 0 0 -1 226.45 199.37)" y="-10.1" x="-6.2" id="right_pupil_4_" height="20.3" width="12.3" xlink:href="#pupil" overflow="visible"/></g><g id="g1128" clip-path="url(#mask_5_)"><use transform="matrix(1 0 0 -1 231.79 193.53)" y="-2.2" x="-2.2" id="right_shine_4_" height="4.3" width="4.3" xlink:href="#eye_shine" overflow="visible"/></g><g id="g1131" clip-path="url(#mask_5_)"><use transform="matrix(1 0 0 -1 154.17 197.88)" y="-2.2" x="-2.2" id="left_shine_3_" height="4.3" width="4.3" xlink:href="#eye_shine" overflow="visible"/></g></g></g><g class="st3" id="_x32__2_"><path d="M211.4 206.5s.4-11.1 12.2-15.5 19.1 2.6 19.1 2.6.3 8.2-10.6 14.1c-10.5 5.8-20.7-1.2-20.7-1.2zm-48.4 0s-.4-11.1-12.2-15.5-19.1 2.6-19.1 2.6-.3 8.2 10.6 14.1c10.6 5.8 20.7-1.2 20.7-1.2z" class="st17" id="eyes_4_"/><g class="st13" id="inner_4_"><defs id="defs1137"><path d="M211.4 206.5s.4-11.1 12.2-15.5 19.1 2.6 19.1 2.6.3 8.2-10.6 14.1c-10.5 5.8-20.7-1.2-20.7-1.2zm-48.4 0s-.4-11.1-12.2-15.5-19.1 2.6-19.1 2.6-.3 8.2 10.6 14.1c10.6 5.8 20.7-1.2 20.7-1.2z" id="mask"/></defs><clipPath id="mask_6_"><use id="use1139" xlink:href="#mask" overflow="visible"/></clipPath><g id="g1143" clip-path="url(#mask_6_)"><use transform="matrix(1 0 0 -1 148 199.37)" y="-10.1" x="-6.2" id="left_pupil_3_" height="20.3" width="12.3" xlink:href="#pupil" overflow="visible"/></g><g id="g1146" clip-path="url(#mask_6_)"><use transform="matrix(1 0 0 -1 226.45 199.37)" y="-10.1" x="-6.2" id="right_pupil_3_" height="20.3" width="12.3" xlink:href="#pupil" overflow="visible"/></g><g id="g1149" clip-path="url(#mask_6_)"><use transform="matrix(1 0 0 -1 231.79 193.53)" y="-2.2" x="-2.2" id="right_shine_3_" height="4.3" width="4.3" xlink:href="#eye_shine" overflow="visible"/></g><g id="g1152" clip-path="url(#mask_6_)"><use transform="matrix(1 0 0 -1 154.17 197.88)" y="-2.2" x="-2.2" id="left_shine_5_" height="4.3" width="4.3" xlink:href="#eye_shine" overflow="visible"/></g></g></g><g id="_x33__2_"><path d="M211.4 206.5s.4-13.4 12.1-17.8 19.1 4.9 19.1 4.9.7 9.6-10.2 15.5c-10.5 5.9-21-2.6-21-2.6zm-48.4 0s-.4-13.4-12.1-17.8-19.1 4.9-19.1 4.9-.7 9.6 10.2 15.5c10.5 5.9 21-2.6 21-2.6z" id="eyes_3_" fill="#9db400" stroke="#000" stroke-miterlimit="10"/><g id="inner_2_"><use transform="matrix(1 0 0 -1 148 199.37)" y="-10.1" x="-6.2" id="left_pupil_2_" height="20.3" width="12.3" xlink:href="#pupil" overflow="visible"/><use transform="matrix(1 0 0 -1 226.45 199.37)" y="-10.1" x="-6.2" id="right_pupil_2_" height="20.3" width="12.3" xlink:href="#pupil" overflow="visible"/><use transform="matrix(1 0 0 -1 231.79 193.53)" y="-2.2" x="-2.2" id="right_shine_2_" height="4.3" width="4.3" xlink:href="#eye_shine" overflow="visible"/><use transform="matrix(1 0 0 -1 154.17 197.88)" y="-2.2" x="-2.2" id="left_shine_4_" height="4.3" width="4.3" xlink:href="#eye_shine" overflow="visible"/></g></g><g class="st3" id="_x34__2_"><path d="M211.4 206.5s-1.3-15.8 10.6-19.9c13.8-4.6 20.7 7 20.7 7s1.5 11-9.3 17c-10.6 5.8-22-4.1-22-4.1zm-48.4 0s1.3-15.8-10.6-19.9c-13.8-4.6-20.7 7-20.7 7s-1.5 11 9.3 17c10.7 5.8 22-4.1 22-4.1z" class="st17" id="eyes_2_"/><g class="st13" id="inner_1_"><use transform="matrix(1 0 0 -1 148 199.37)" y="-10.1" x="-6.2" id="left_pupil_1_" height="20.3" width="12.3" xlink:href="#pupil" overflow="visible"/><use transform="matrix(1 0 0 -1 226.45 199.37)" y="-10.1" x="-6.2" id="right_pupil_1_" height="20.3" width="12.3" xlink:href="#pupil" overflow="visible"/><use transform="matrix(1 0 0 -1 231.79 193.53)" y="-2.2" x="-2.2" id="right_shine_1_" height="4.3" width="4.3" xlink:href="#eye_shine" overflow="visible"/><use transform="matrix(1 0 0 -1 154.17 197.88)" y="-2.2" x="-2.2" id="left_shine_2_" height="4.3" width="4.3" xlink:href="#eye_shine" overflow="visible"/></g></g><g class="st3" id="_x35__2_"><path d="M211.4 206.5s-5.5-17.7 10.8-22.4c16.3-4.6 20.4 9.5 20.4 9.5s3.5 13.4-10.5 19.1c-11.6 4.9-20.7-6.2-20.7-6.2zm-48.2.2s5.5-17.7-10.8-22.4c-16.3-4.6-20.4 9.5-20.4 9.5s-3.5 13.4 10.5 19.1c11.6 4.8 20.7-6.2 20.7-6.2z" class="st17" id="eyes_1_"/><g class="st13" id="inner"><use transform="matrix(1 0 0 -1 148 199.37)" y="-10.1" x="-6.2" id="left_pupil" height="20.3" width="12.3" xlink:href="#pupil" overflow="visible"/><use transform="matrix(1 0 0 -1 226.45 199.37)" y="-10.1" x="-6.2" id="right_pupil" height="20.3" width="12.3" xlink:href="#pupil" overflow="visible"/><use transform="matrix(1 0 0 -1 231.79 193.53)" y="-2.2" x="-2.2" id="right_shine" height="4.3" width="4.3" xlink:href="#eye_shine" overflow="visible"/><use transform="matrix(1 0 0 -1 154.17 197.88)" y="-2.2" x="-2.2" id="left_shine_1_" height="4.3" width="4.3" xlink:href="#eye_shine" overflow="visible"/></g></g></g><g id="lines"><path d="M186.7 269.4c-32.6 0-71.3-12.4-82.1-49.7-4.9-16.8-9.3-51.6 24.2-83.1 13.8-13 32.6-26 57.9-26 25.3 0 44.1 13 57.9 26 33.5 31.5 29.1 66.2 24.2 83.1-15.3 37.5-49.5 49.7-82.1 49.7z" class="st19" id="_x31__4_"/><path d="M282.3 222.4c6.7-27.3-2.4-58.5-34.4-86.6-14.2-12.5-37.1-25.1-61.2-25.1s-47 12.5-61.2 25.1c-32 28.2-41.1 59.3-34.4 86.6 11.7 47.2 63 51.5 95.6 51.5 32.6 0 83.9-4.2 95.6-51.5z" class="st19" id="_x32__4_"/><path d="M186.7 278.4c32.6 0 78.8 3.3 95.3-25.2 19-32.8 18.3-80.2-27.2-116.8-18.9-15.2-43.8-25.7-68.1-25.7-24.3 0-47.1 9.1-68.1 25.7-45.5 36.7-46.2 84-27.2 116.8 16.5 28.5 62.8 25.2 95.3 25.2z" id="_x33__4_" fill="none" stroke="#000" stroke-miterlimit="10"/><path d="M71.7 245.7c-13.8-37 6.1-79.6 33.2-103.7 24.3-21.6 56.6-31.3 81.8-31.3s57.5 9.7 81.8 31.3c27.1 24.1 47 66.7 33.2 103.7-19.7 52.7-82.4 38.1-115 38.1s-95.3 14.7-115-38.1z" class="st19" id="_x34__4_"/><path d="M61.9 256.5c-16.7-40.8-1.2-87.4 37.7-117.3 36.5-27.9 72.4-28.5 87.1-28.5 14.7 0 50.6.6 87.1 28.5 39 29.9 54.5 76.5 37.7 117.3-23.9 58.3-117.1 32.1-124.8 32.1-7.7 0-100.9 26.2-124.8-32.1z" class="st19" id="_x35__1_"/></g></svg>