<?xml version="1.0" encoding="UTF-8" standalone="no"?>
<svg
   xmlns:dc="http://purl.org/dc/elements/1.1/"
   xmlns:cc="http://creativecommons.org/ns#"
   xmlns:rdf="http://www.w3.org/1999/02/22-rdf-syntax-ns#"
   xmlns:svg="http://www.w3.org/2000/svg"
   xmlns="http://www.w3.org/2000/svg"
   xmlns:xlink="http://www.w3.org/1999/xlink"
   xml:space="preserve"
   style="enable-background:new 0 0 376.5 334.4;"
   viewBox="0 0 376.5 334.4"
   y="0px"
   x="0px"
   id="cat"
   version="1.1"><metadata
     id="metadata1189"><rdf:RDF><cc:Work
         rdf:about=""><dc:format>image/svg+xml</dc:format><dc:type
           rdf:resource="http://purl.org/dc/dcmitype/StillImage" /><dc:title></dc:title></cc:Work></rdf:RDF></metadata><defs
     id="defs1187" /><style
     id="style1003"
     type="text/css">
	.st0{fill:#989898;stroke:#000000;}
	.st1{fill:#FFFFFF;}
	.st2{fill:#B47A00;}
	.st3{display:none;}
	.st4{display:none;fill:#989898;stroke:#000000;stroke-miterlimit:10;}
	.st5{fill:#989898;stroke:#000000;stroke-miterlimit:10;}
	.st6{clip-path:url(#point_1_);}
	.st7{clip-path:url(#_x31__6_);}
	.st8{clip-path:url(#_x32__6_);}
	.st9{clip-path:url(#_x33__6_);}
	.st10{clip-path:url(#_x34__6_);}
	.st11{display:none;clip-path:url(#_x35__6_);}
	.st12{display:inline;fill:#B47A00;}
	.st13{display:inline;}
	.st14{display:inline;clip-path:url(#mask_4_);}
	.st15{display:none;clip-path:url(#_x35__6_);fill:#F7F4E9;}
	.st16{display:inline;fill:#989898;stroke:#000000;stroke-miterlimit:10;}
	.st17{display:inline;fill:#9DB400;stroke:#000000;stroke-miterlimit:10;}
	.st18{fill:#9DB400;stroke:#000000;stroke-miterlimit:10;}
	.st19{display:none;fill:none;stroke:#000000;stroke-miterlimit:10;}
	.st20{fill:none;stroke:#000000;stroke-miterlimit:10;}
</style><symbol
     viewBox="-64 -75.8 127.9 151.5"
     id="Ear"><path
       d="   M-60,74.6C-49.2,81.2-0.8,39.7,41.9,13c24.6-15.4,30.9-43.1,4.3-71.9c-26.5-28.9-62.4-14.6-77.6,5.3C-54.8-23.1-70.8,67.9-60,74.6   L-60,74.6z"
       class="st0"
       id="path921_8_" /><path
       id="path1006"
       d="M63.5-75.3"
       class="st0" /></symbol><symbol
     viewBox="-2.2 -2.2 4.3 4.3"
     id="eye_shine"><circle
       id="circle1009"
       r="2.2"
       cy="0"
       cx="0"
       class="st1" /></symbol><symbol
     viewBox="-75.5 -69.4 151 138.9"
     id="point"><path
       d="M0,69.4c3.6,0,11.1-1.5,18.9-9c13-12.4,15-32.4,20.3-37.7c8.1-8.2,36.1-11.2,36.3-31.4   c0.1-9.2-14.7-35.2-33.1-45.5C22.2-65.4,11.3-69.4,0-69.4s-22.2,4-42.4,15.3C-60.8-43.9-75.6-17.9-75.5-8.7   c0.2,20.3,28.2,23.2,36.3,31.4c5.3,5.3,7.3,25.3,20.3,37.7C-11.1,67.9-3.6,69.4,0,69.4z"
       class="st2"
       id="point_3_" /></symbol><symbol
     viewBox="-6.2 -10.1 12.3 20.3"
     id="pupil"><path
       id="path1014"
       d="M0-10.1C2-10.1,6.2-6.9,6.2,0S1.8,10.1,0,10.1c-1.9,0-6.1-3.2-6.1-10.1S-1.9-10.1,0-10.1z" /></symbol><g
     id="ears_1_"><g
       class="st3"
       id="_x31_"><use
         style="display:inline;overflow:visible;"
         transform="matrix(0.9455 -0.3256 -0.3256 -0.9455 90.5088 157.5663)"
         y="-75.8"
         x="-64"
         id="left_4_"
         height="151.5"
         width="127.9"
         xlink:href="#Ear" /><use
         style="display:inline;overflow:visible;"
         transform="matrix(-0.9455 -0.3256 0.3256 -0.9455 283.3665 157.5663)"
         y="-75.8"
         x="-64"
         id="right_4_"
         height="151.5"
         width="127.9"
         xlink:href="#Ear" /></g><g
       class="st3"
       id="_x32_"><use
         style="display:inline;overflow:visible;"
         transform="matrix(0.9902 -0.1398 -0.1398 -0.9902 97.6113 146.656)"
         y="-75.8"
         x="-64"
         id="left_3_"
         height="151.5"
         width="127.9"
         xlink:href="#Ear" /><use
         style="display:inline;overflow:visible;"
         transform="matrix(-0.9902 -0.1398 0.1398 -0.9902 278.8421 146.656)"
         y="-75.8"
         x="-64"
         id="right_3_"
         height="151.5"
         width="127.9"
         xlink:href="#Ear" /></g><g
       id="_x33_"><use
         style="overflow:visible;"
         transform="matrix(1 0 0 -1 104.8466 139.2364)"
         y="-75.8"
         x="-64"
         id="left_2_"
         height="151.5"
         width="127.9"
         xlink:href="#Ear" /><use
         style="overflow:visible;"
         transform="matrix(-1 0 0 -1 268.8229 139.2364)"
         y="-75.8"
         x="-64"
         id="right_2_"
         height="151.5"
         width="127.9"
         xlink:href="#Ear" /></g><g
       class="st3"
       id="_x34_"><use
         style="display:inline;overflow:visible;"
         transform="matrix(0.9851 0.1719 0.1719 -0.9851 114.7603 131.9736)"
         y="-75.8"
         x="-64"
         id="left_1_"
         height="151.5"
         width="127.9"
         xlink:href="#Ear" /><use
         style="display:inline;overflow:visible;"
         transform="matrix(-0.9851 0.1719 -0.1719 -0.9851 259.6812 131.9736)"
         y="-75.8"
         x="-64"
         id="right_1_"
         height="151.5"
         width="127.9"
         xlink:href="#Ear" /></g><g
       class="st3"
       id="_x35_"><use
         style="display:inline;overflow:visible;"
         transform="matrix(0.9511 0.309 0.309 -0.9511 124.6408 127.1238)"
         y="-75.8"
         x="-64"
         id="left"
         height="151.5"
         width="127.9"
         xlink:href="#Ear" /><use
         style="display:inline;overflow:visible;"
         transform="matrix(-0.9511 0.309 -0.309 -0.9511 249.1101 127.1238)"
         y="-75.8"
         x="-64"
         id="right"
         height="151.5"
         width="127.9"
         xlink:href="#Ear" /></g></g><g
     id="head"><path
       d="M186.7,269.4   c-32.6,0-71.3-12.4-82.1-49.7c-4.9-16.8-9.3-51.6,24.2-83.1c13.8-13,32.6-26,57.9-26c25.3,0,44.1,13,57.9,26   c33.5,31.5,29.1,66.2,24.2,83.1C253.5,257.2,219.3,269.4,186.7,269.4z"
       class="st4"
       id="_x31__1_" /><path
       d="M282.3,222.4   c6.7-27.3-2.4-58.5-34.4-86.6c-14.2-12.5-37.1-25.1-61.2-25.1s-47,12.5-61.2,25.1c-32,28.2-41.1,59.3-34.4,86.6   c11.7,47.2,63,51.5,95.6,51.5C219.3,273.9,270.6,269.7,282.3,222.4z"
       class="st4"
       id="_x32__1_" /><path
       d="M186.7,278.4   c32.6,0,78.8,3.3,95.3-25.2c19-32.8,18.3-80.2-27.2-116.8c-18.9-15.2-43.8-25.7-68.1-25.7c-24.3,0-47.1,9.1-68.1,25.7   c-45.5,36.7-46.2,84-27.2,116.8C107.9,281.7,154.2,278.4,186.7,278.4z"
       class="st5"
       id="_x33__1_" /><path
       d="M71.7,245.7   c-13.8-37,6.1-79.6,33.2-103.7c24.3-21.6,56.6-31.3,81.8-31.3s57.5,9.7,81.8,31.3c27.1,24.1,47,66.7,33.2,103.7   c-19.7,52.7-82.4,38.1-115,38.1S91.4,298.5,71.7,245.7z"
       class="st4"
       id="_x34__1_" /><path
       d="M61.9,256.5   c-16.7-40.8-1.2-87.4,37.7-117.3c36.5-27.9,72.4-28.5,87.1-28.5c14.7,0,50.6,0.6,87.1,28.5c39,29.9,54.5,76.5,37.7,117.3   c-23.9,58.3-117.1,32.1-124.8,32.1C179,288.6,85.8,314.8,61.9,256.5L61.9,256.5z"
       class="st4"
       id="_x35__4_" /></g><g
     id="markings_1_"><defs
       id="defs1040"><path
         d="M187.2,128.6c3.6,0,11.1,1.5,18.9,9c13,12.4,15,32.4,20.3,37.7c8.1,8.2,36.1,11.2,36.3,31.4    c0.1,9.2-14.7,35.2-33.1,45.5c-20.2,11.3-31.2,15.3-42.4,15.3s-22.2-4-42.4-15.3c-18.3-10.2-33.1-36.2-33.1-45.5    c0.2-20.3,28.2-23.2,36.3-31.4c5.3-5.3,7.3-25.3,20.3-37.7C176.1,130.2,183.7,128.6,187.2,128.6z"
         id="point_5_" /></defs><defs
       id="defs1043"><path
         d="M186.7,269.4c-32.6,0-71.3-12.4-82.1-49.7    c-4.9-16.8-9.3-51.6,24.2-83.1c13.8-13,32.6-26,57.9-26c25.3,0,44.1,13,57.9,26c33.5,31.5,29.1,66.2,24.2,83.1    C253.5,257.2,219.3,269.4,186.7,269.4z"
         id="_x31__5_" /></defs><defs
       id="defs1046"><path
         d="M282.3,222.4c6.7-27.3-2.4-58.5-34.4-86.6    c-14.2-12.5-37.1-25.1-61.2-25.1s-47,12.5-61.2,25.1c-32,28.2-41.1,59.3-34.4,86.6c11.7,47.2,63,51.5,95.6,51.5    C219.3,273.9,270.6,269.7,282.3,222.4z"
         id="_x32__5_" /></defs><defs
       id="defs1049"><path
         d="M186.7,278.4c32.6,0,78.8,3.3,95.3-25.2    c19-32.8,18.3-80.2-27.2-116.8c-18.9-15.2-43.8-25.7-68.1-25.7c-24.3,0-47.1,9.1-68.1,25.7c-45.5,36.7-46.2,84-27.2,116.8    C107.9,281.7,154.2,278.4,186.7,278.4z"
         id="_x33__5_" /></defs><defs
       id="defs1052"><path
         d="M71.7,245.7c-13.8-37,6.1-79.6,33.2-103.7    c24.3-21.6,56.6-31.3,81.8-31.3s57.5,9.7,81.8,31.3c27.1,24.1,47,66.7,33.2,103.7c-19.7,52.7-82.4,38.1-115,38.1    S91.4,298.5,71.7,245.7z"
         id="_x34__5_" /></defs><defs
       id="defs1055"><path
         d="M61.9,256.5    c-16.7-40.8-1.2-87.4,37.7-117.3c36.5-27.9,72.4-28.5,87.1-28.5c14.7,0,50.6,0.6,87.1,28.5c39,29.9,54.5,76.5,37.7,117.3    c-23.9,58.3-117.1,32.1-124.8,32.1C179,288.6,85.8,314.8,61.9,256.5L61.9,256.5z"
         id="_x35__5_" /></defs><clipPath
       id="point_1_"><use
         id="use1057"
         style="display:none;overflow:visible;"
         xlink:href="#point_5_" /></clipPath><clipPath
       clip-path="url(#point_1_)"
       class="st6"
       id="_x31__6_"><use
         id="use1060"
         style="display:none;overflow:visible;"
         xlink:href="#_x31__5_" /></clipPath><clipPath
       clip-path="url(#_x31__6_)"
       class="st7"
       id="_x32__6_"><use
         id="use1063"
         style="display:none;overflow:visible;"
         xlink:href="#_x32__5_" /></clipPath><clipPath
       clip-path="url(#_x32__6_)"
       class="st8"
       id="_x33__6_"><use
         id="use1066"
         style="overflow:visible;"
         xlink:href="#_x33__5_" /></clipPath><clipPath
       clip-path="url(#_x33__6_)"
       class="st9"
       id="_x34__6_"><use
         id="use1069"
         style="display:none;overflow:visible;"
         xlink:href="#_x34__5_" /></clipPath><clipPath
       clip-path="url(#_x34__6_)"
       class="st10"
       id="_x35__6_"><use
         id="use1072"
         style="display:none;overflow:visible;"
         xlink:href="#_x35__5_" /></clipPath><g
       id="g1077"
       clip-path="url(#_x35__6_)"
       class="st11"><use
         id="use1075"
         style="display:inline;overflow:visible;"
         transform="matrix(1 0 0 -1 187.2208 198.0809)"
         y="-69.4"
         x="-75.5"
         height="138.9"
         width="151"
         xlink:href="#point" /></g><path
       clip-path="url(#_x35__6_)"
       d="M187.2,165.5c0,0-4.6-3.8-6.9-15c-1.2-5.7-2.7-14.2-2.7-14.2s-4.3,8.2-4.3,12.3   c0,6.5,3.3,15,3.3,15s-4.8-2.7-7.5-7.5c-1.4-2.5-1.8-8.3-3-13.7c-1.1-4.9-3.1-9.7-3.1-9.7s-8.8,8-12,24.5   c-1.3,6.6,1.1,15.8,1.1,15.8s-7.4-2.5-8.1-15.5c-0.3-5.3,3.4-20,2.2-25.8c-1.3-5.8-10.8-17-10.8-17L187.2,95h0l51.9,19.8   c0,0-9.6,11.2-10.8,17c-1.3,5.8,2.5,20.5,2.2,25.8c-0.7,13-8.1,15.5-8.1,15.5s2.3-9.3,1.1-15.8c-3.2-16.5-12-24.5-12-24.5   s-2,4.7-3.1,9.7c-1.2,5.4-1.6,11.1-3,13.7c-2.7,4.8-7.5,7.5-7.5,7.5s3.3-8.5,3.3-15c0-4.2-4.3-12.3-4.3-12.3s-1.5,8.5-2.7,14.2   C191.9,161.7,187.3,165.5,187.2,165.5L187.2,165.5z M329.7,219.3c0,0-36.7-9.8-47.2-16.7c-4-2.6-7.5-11.3-11.7-13.3   c-4.3-2.1-13.3-3.7-19.5-2.3c-5.6,1.2-21.9,11-21.9,11s18.8-4.4,25.8-5c3.5-0.3,10.4,2.8,13.2,5c3.3,2.6,6.2,11.2,9.3,14   c4.7,4.1,22.3,10.7,22.3,10.7s-9.9-1.1-13.1-1.9c-4.4-1.1-12.7-4.8-17.2-5.3c-8.6-0.9-18.3,1.7-18.3,1.7s15.2,2.6,20,4.2   c10.6,3.4,31.6,11.1,41.3,16.7c5.6,3.2,20.4,16,20.4,16L329.7,219.3z M41.4,253.9c0,0,14.8-12.8,20.4-16   c9.7-5.6,30.7-13.3,41.3-16.7c4.8-1.5,20-4.2,20-4.2s-9.7-2.5-18.3-1.7c-4.6,0.5-12.8,4.2-17.2,5.3c-3.2,0.8-13.1,1.9-13.1,1.9   s17.6-6.6,22.3-10.7c3.2-2.8,6-11.4,9.3-14c2.8-2.2,9.7-5.3,13.2-5c7.1,0.7,25.8,5,25.8,5s-16.4-9.7-21.9-11   c-6.2-1.4-15.2,0.3-19.5,2.3c-4.3,2.1-7.8,10.7-11.7,13.3c-10.4,6.9-47.2,16.7-47.2,16.7L41.4,253.9z"
       class="st11"
       id="tabby_1_" /><g
       clip-path="url(#_x35__6_)"
       class="st11"
       id="tortie_1_"><path
         d="M138.8,160.5v-6.7l-1.3-12.8l3-9.5l-1.5-6.2l17.6-14.6l20.3-7.5l19.3,4l-8.1,13l-5.9,2.7l-2,5.2    l-17.8,7.3l-5-2.7l-6.2,1.3l-3,5.2l1.3,5.1l-3.7,11.5L138.8,160.5z M152.8,204.4l0.6,6.1l4.6,3.1l14.4-21.8c0,0,0,0-2.5-9.1    l3.5-4.8l-1.3-8.1l-6,0.9l-6.3,2.6l-2.3,4.3l-5.3,1.9l-0.6,9.9l-16.9-2.1l-6.1,5.4l3,7.1l8,9.3L152.8,204.4z M216.3,212.3l5.5-1.4    l3.6,5.5l24,7.4l4.4,10.9l5.1,2.9l3.9-12.9l6.6,2.3l0.6-3.4l-5.5-16.6l-5.5-2l-2.6-7.5l-5.7-0.3l-13.5-2.3l0.8-6.8l-8.5-4.8l4.5-6    l-3-0.8l-1.1-3.8l16.9-18.8l12-1.8l8.5,7.5l2.6,12.5l-4,6.5l1,8.9l6.9,4.3l0.6-3.5l13.9-1.1l2,10.6l11-0.8l4.6-8l-2.5-4.4l2.6-5.3    l9.3-4.8l-51.4-54.3l-55.9-14l15.4,17.3l-2.4,2.4l2.4,6.4l-9.9,11.1l3.1,10.6l5.3,6.1l-14.8,10l-4.3-2.5l-2.8,8.8l6.5,9.3    l-3.9,2.9l-2,7.8l4.7,6.6l7.1-0.7L216.3,212.3z M178.6,236.4l-4.3,7.3l-9.7,0.7v8.2l5.3,2.4v3.8l11.5,2.2l1,6.2l13,4.7l6.7-2.2    v3.8l-4,6.5l5,5.5l7.3-2l-1.3,6.7l8.5-6.7l4.3,0.3l3.5-2.5l9.7,2l5.8-11.8l-3-4.2l-11.8,0.8l2-4.8l12.8-6.8l-1.2-6.3l-9.8,2.8    l-4.3-3.9l-16.8-1.3l-12.5-11.3l-3.5,5L178.6,236.4z M102.3,190.1l-3.7,9.3l-4.5-1.3l-24.7,16.5l14.7,19.2l-5.3,9.3l8.7,7.2    l1.5,8.3l23.2,23.7l9.2-0.2l12.2,3.3l9.3-9.1l-1.2-5.6l-7.7-1.2l2-6.3l-5-10.1l-9.3,1.5l-10.3-5.2v-13l14.8-12.5l-10.3-17.2    l-1.1-6.2l-2.2-2.2l6.5-8.1l-5.3-10.1L102.3,190.1z"
         class="st12"
         id="red" /><g
         id="torbie"><defs
           id="defs1082"><path
             d="M138.8,160.5v-6.7l-1.3-12.8l3-9.5l-1.5-6.2l17.6-14.6l20.3-7.5l19.3,4l-8.1,13l-5.9,2.7l-2,5.2l-17.8,7.3      l-5-2.7l-6.2,1.3l-3,5.2l1.3,5.1l-3.7,11.5L138.8,160.5z M152.8,204.4l0.6,6.1l4.6,3.1l14.4-21.8c0,0,0,0-2.5-9.1l3.5-4.8      l-1.3-8.1l-6,0.9l-6.3,2.6l-2.3,4.3l-5.3,1.9l-0.6,9.9l-16.9-2.1l-6.1,5.4l3,7.1l8,9.3L152.8,204.4z M216.3,212.3l5.5-1.4      l3.6,5.5l24,7.4l4.4,10.9l5.1,2.9l3.9-12.9l6.6,2.3l0.6-3.4l-5.5-16.6l-5.5-2l-2.6-7.5l-5.7-0.3l-13.5-2.3l0.8-6.8l-8.5-4.8      l4.5-6l-3-0.8l-1.1-3.8l16.9-18.8l12-1.8l8.5,7.5l2.6,12.5l-4,6.5l1,8.9l6.9,4.3l0.6-3.5l13.9-1.1l2,10.6l11-0.8l4.6-8l-2.5-4.4      l2.6-5.3l9.3-4.8l-51.4-54.3l-55.9-14l15.4,17.3l-2.4,2.4l2.4,6.4l-9.9,11.1l3.1,10.6l5.3,6.1l-14.8,10l-4.3-2.5l-2.8,8.8      l6.5,9.3l-3.9,2.9l-2,7.8l4.7,6.6l7.1-0.7L216.3,212.3z M178.6,236.4l-4.3,7.3l-9.7,0.7v8.2l5.3,2.4v3.8l11.5,2.2l1,6.2l13,4.7      l6.7-2.2v3.8l-4,6.5l5,5.5l7.3-2l-1.3,6.7l8.5-6.7l4.3,0.3l3.5-2.5l9.7,2l5.8-11.8l-3-4.2l-11.8,0.8l2-4.8l12.8-6.8l-1.2-6.3      l-9.8,2.8l-4.3-3.9l-16.8-1.3l-12.5-11.3l-3.5,5L178.6,236.4z M102.3,190.1l-3.7,9.3l-4.5-1.3l-24.7,16.5l14.7,19.2l-5.3,9.3      l8.7,7.2l1.5,8.3l23.2,23.7l9.2-0.2l12.2,3.3l9.3-9.1l-1.2-5.6l-7.7-1.2l2-6.3l-5-10.1l-9.3,1.5l-10.3-5.2v-13l14.8-12.5      l-10.3-17.2l-1.1-6.2l-2.2-2.2l6.5-8.1l-5.3-10.1L102.3,190.1z"
             id="mask_3_" /></defs><clipPath
           class="st13"
           id="mask_4_"><use
             id="use1084"
             style="overflow:visible;"
             xlink:href="#mask_3_" /></clipPath><path
           clip-path="url(#mask_4_)"
           d="M187.2,165.5c0,0-4.6-3.8-6.9-15c-1.2-5.7-2.7-14.2-2.7-14.2s-4.3,8.2-4.3,12.3     c0,6.5,3.3,15,3.3,15s-4.8-2.7-7.5-7.5c-1.4-2.5-1.8-8.3-3-13.7c-1.1-4.9-3.1-9.7-3.1-9.7s-8.8,8-12,24.5     c-1.3,6.6,1.1,15.8,1.1,15.8s-7.4-2.5-8.1-15.5c-0.3-5.3,3.4-20,2.2-25.8c-1.3-5.8-10.8-17-10.8-17L187.2,95h0l51.9,19.8     c0,0-9.6,11.2-10.8,17c-1.3,5.8,2.5,20.5,2.2,25.8c-0.7,13-8.1,15.5-8.1,15.5s2.3-9.3,1.1-15.8c-3.2-16.5-12-24.5-12-24.5     s-2,4.7-3.1,9.7c-1.2,5.4-1.6,11.1-3,13.7c-2.7,4.8-7.5,7.5-7.5,7.5s3.3-8.5,3.3-15c0-4.2-4.3-12.3-4.3-12.3s-1.5,8.5-2.7,14.2     C191.9,161.7,187.3,165.5,187.2,165.5L187.2,165.5z M329.7,219.3c0,0-36.7-9.8-47.2-16.7c-4-2.6-7.5-11.3-11.7-13.3     c-4.3-2.1-13.3-3.7-19.5-2.3c-5.6,1.2-21.9,11-21.9,11s18.8-4.4,25.8-5c3.5-0.3,10.4,2.8,13.2,5c3.3,2.6,6.2,11.2,9.3,14     c4.7,4.1,22.3,10.7,22.3,10.7s-9.9-1.1-13.1-1.9c-4.4-1.1-12.7-4.8-17.2-5.3c-8.6-0.9-18.3,1.7-18.3,1.7s15.2,2.6,20,4.2     c10.6,3.4,31.6,11.1,41.3,16.7c5.6,3.2,20.4,16,20.4,16L329.7,219.3z M41.4,253.9c0,0,14.8-12.8,20.4-16     c9.7-5.6,30.7-13.3,41.3-16.7c4.8-1.5,20-4.2,20-4.2s-9.7-2.5-18.3-1.7c-4.6,0.5-12.8,4.2-17.2,5.3c-3.2,0.8-13.1,1.9-13.1,1.9     s17.6-6.6,22.3-10.7c3.2-2.8,6-11.4,9.3-14c2.8-2.2,9.7-5.3,13.2-5c7.1,0.7,25.8,5,25.8,5s-16.4-9.7-21.9-11     c-6.2-1.4-15.2,0.3-19.5,2.3c-4.3,2.1-7.8,10.7-11.7,13.3c-10.4,6.9-47.2,16.7-47.2,16.7L41.4,253.9z"
           class="st14"
           id="tabby_2_" /></g></g><polygon
       clip-path="url(#_x35__6_)"
       points="30.7,268.3 126.6,243 153.6,223.7 155.3,216.7 177.9,190.3 177.9,185 182.9,176.4    186.7,153.4 190.9,169.4 189.4,181 198.4,188.8 215.9,217.3 238.9,236.3 328.2,240 328.2,282.7 186.7,328  "
       class="st15"
       id="low_white_2_" /><path
       clip-path="url(#_x35__6_)"
       d="M135,100.1c0,0-3,27-7.3,31.3c-4.3,4.3-3.1,3.4-4.3,4.3c-8.3,6.3-1.6,19.7-3.5,26.9   c-1.1,4.1-14.6,3.3-17.1,4.6c-19.1,9.7-46.8,10.1-46.8,10.1L32.3,287l154.4,34.7L322.9,285l5.5-98c0,0-52.7-15.6-68.8-10   c-4,1.4-6.6,9.7-10.7,11c-3.2,1.1-11.8,1-13.3-2c-0.7-1.3,3-2.4,2.8-3.9c-0.3-2.9-6.4-7.8-7.5-10.5c-3.5-8.1,0.3-20-3-31.7   c-2.7-9.4,21.7-36,21.7-36L135,100.1z"
       class="st15"
       id="high_white_2_" /></g><g
     id="muzzle"><g
       class="st3"
       id="_x31__3_"><path
         d="M160.7,248.6c2.6,6.1,17,11.5,26.5,11.5c9.6,0,23.9-5.4,26.5-11.5l-26.5-25.9L160.7,248.6z"
         class="st16"
         id="jaw_4_" /><path
         d="M187.2,233c-11,3.5-22.2,17.9-28.7,19.4c-11.2,2.7-21.7-7-18.7-17.4    c2.6-8.8,24.2-29.4,30.1-39.4c5.8-9.8,12.2-10.3,17.3-10.5c0,0,0.1,0,0.1,0c5.1,0.2,11.5,0.8,17.3,10.5    c5.9,10,27.5,30.6,30.1,39.4c3,10.3-7.5,20.1-18.7,17.4C209.5,250.9,198.3,236.5,187.2,233L187.2,233z M187.2,215.2v18.4"
         class="st16"
         id="muzzle_5_" /><path
         d="M187.2,215.2c3.9,0,3.1-3.7,3.7-5.1c0.6-1.5,4.7,0,5.8-1.1c0.7-0.7,1.1-2.3,0.4-3    c-1.7-1.9-7.3-1.7-9.9-1.7c-2.6,0-8.2-0.2-9.9,1.7c-0.6,0.7-0.2,2.3,0.4,3c1.1,1.1,5.2-0.4,5.8,1.1    C184.1,211.5,183.3,215.2,187.2,215.2z"
         class="st13"
         id="nose_4_" /></g><g
       class="st3"
       id="_x32__3_"><path
         d="M160.7,255.6c2.6,6.1,17,11.5,26.5,11.5c9.6,0,23.9-5.4,26.5-11.5L187.2,238L160.7,255.6z"
         class="st16"
         id="jaw_3_" /><path
         d="M157.9,258.9c-10.5-1-19.3-12.1-16.6-22c2.4-8.8,26.2-36,33.5-43.9c5.3-5.6,8.9-6.5,12.4-6.5    c3.5,0,7.1,0.9,12.4,6.5c7.3,7.9,31.1,35,33.5,43.9c2.7,9.9-6.1,21-16.6,22c-6.2,0.6-29.3-18.4-29.3-18.4S164.1,259.5,157.9,258.9    z M187.2,228.4v12.1"
         class="st16"
         id="muzzle_4_" /><path
         d="M187.2,228.4c3.9,0,3.1-3.7,3.7-5.1c0.6-1.5,4.7,0,5.8-1.1c0.7-0.7,1.1-2.3,0.4-3    c-1.7-1.9-7.3-1.7-9.9-1.7s-8.2-0.2-9.9,1.7c-0.6,0.7-0.2,2.3,0.4,3c1.1,1.1,5.2-0.4,5.8,1.1C184.1,224.7,183.3,228.4,187.2,228.4    z"
         class="st13"
         id="nose_3_" /></g><g
       id="_x33__3_"><path
         d="M160.7,264.8c2.6,6.1,17,11.5,26.5,11.5c9.6,0,23.9-5.4,26.5-11.5l-26.5-13.8L160.7,264.8z"
         class="st5"
         id="jaw" /><path
         d="M159.7,264.8c-10.5-1-21.5-11.4-18.8-21.2c2.4-8.8,29.1-43.8,35.3-52.7    c3.3-4.7,11.1-4.2,11.1-4.2s7.8-0.5,11.1,4.2c6.2,8.9,32.9,43.9,35.3,52.7c2.7,9.9-8.3,20.2-18.8,21.2c-6.2,0.6-27.5-9.9-27.5-9.9    S165.9,265.4,159.7,264.8z M187.2,243v10v1.9"
         class="st5"
         id="muzzle_1_" /><path
         d="M187.2,243c3.9,0,3.1-3.7,3.7-5.1c0.6-1.5,4.7,0,5.8-1.1c0.7-0.7,1.1-2.3,0.4-3c-1.7-1.9-7.3-1.7-9.9-1.7    s-8.2-0.2-9.9,1.7c-0.6,0.7-0.2,2.3,0.4,3c1.1,1.1,5.2-0.4,5.8,1.1C184.1,239.3,183.3,243,187.2,243z"
         id="nose" /></g><g
       class="st3"
       id="_x34__3_"><path
         d="M160.7,274.6c2.6,6.1,17,11.5,26.5,11.5c9.6,0,23.9-5.4,26.5-11.5l-26.5-13.8L160.7,274.6z"
         class="st16"
         id="jaw_2_" /><path
         d="M160.7,274.1c-10.5-1-22.1-13.2-19.4-23.1c2.4-8.8,24.5-42.7,31-53.6    c5.3-8.7,10.3-9.8,14.9-9.8c4.6,0,9.6,1.1,14.9,9.8c6.6,10.9,28.6,44.7,31,53.6c2.7,9.9-8.9,22.1-19.4,23.1    c-6.2,0.6-26.5-8.3-26.5-8.3S166.9,274.7,160.7,274.1z M187.2,255.1v10.8"
         class="st16"
         id="muzzle_3_" /><path
         d="M187.2,255.1c3.9,0,3.1-3.7,3.7-5.1c0.6-1.5,4.7,0,5.8-1.1c0.7-0.7,1.1-2.3,0.4-3    c-1.7-1.9-7.3-1.7-9.9-1.7c-2.6,0-8.2-0.2-9.9,1.7c-0.6,0.7-0.2,2.3,0.4,3c1.1,1.1,5.2-0.4,5.8,1.1    C184.1,251.4,183.3,255.1,187.2,255.1z"
         class="st13"
         id="nose_2_" /></g><g
       class="st3"
       id="_x35__3_"><path
         d="M187.2,270.7l22.8,12.1c-2.6,6.1-13.3,11.4-22.8,11.4c-9.6,0-20.2-5.4-22.8-11.4L187.2,270.7z"
         class="st16"
         id="jaw_1_" /><path
         d="M161.5,283c-13.4-0.6-22.8-16-18.7-27.9c3-8.7,27.3-48.5,31.8-58.3c3.7-8.2,12.6-8,12.6-8    s8.8-0.2,12.6,8c4.5,9.8,28.9,49.6,31.8,58.3c4.1,11.9-5.3,27.3-18.7,27.9c-6.2,0.3-25.7-7.3-25.7-7.3S167.7,283.3,161.5,283z     M187.2,267v8.8"
         class="st16"
         id="muzzle_2_" /><path
         d="M187.2,267c3.9,0,3.1-3.7,3.7-5.1c0.6-1.5,4.7,0,5.8-1.1c0.7-0.7,1.1-2.3,0.4-3    c-1.7-1.9-7.3-1.7-9.9-1.7s-8.2-0.2-9.9,1.7c-0.6,0.7-0.2,2.3,0.4,3c1.1,1.1,5.2-0.4,5.8,1.1C184.1,263.3,183.3,267,187.2,267z"
         class="st13"
         id="nose_1_" /></g></g><g
     id="eyes"><g
       class="st3"
       id="_x31__2_"><path
         d="M143.6,206.5c-10.9-5.7-11.9-12.9-11.9-12.9s6-5.3,17.8-0.9s13.5,13.8,13.5,13.8    S152.6,211.3,143.6,206.5z M230.8,206.5c10.9-5.7,11.9-12.9,11.9-12.9s-6-5.3-17.8-0.9s-13.5,13.8-13.5,13.8    S221.8,211.3,230.8,206.5z"
         class="st17"
         id="eyes_5_" /><g
         class="st13"
         id="inner_5_"><defs
           id="defs1116"><path
             d="M143.6,206.5c-10.9-5.7-11.9-12.9-11.9-12.9s6-5.3,17.8-0.9s13.5,13.8,13.5,13.8S152.6,211.3,143.6,206.5z       M230.8,206.5c10.9-5.7,11.9-12.9,11.9-12.9s-6-5.3-17.8-0.9s-13.5,13.8-13.5,13.8S221.8,211.3,230.8,206.5z"
             id="mask_1_" /></defs><clipPath
           id="mask_5_"><use
             id="use1118"
             style="overflow:visible;"
             xlink:href="#mask_1_" /></clipPath><g
           id="g1122"
           clip-path="url(#mask_5_)"
           style="clip-path:url(#mask_5_);"><use
             style="overflow:visible;"
             transform="matrix(1 0 0 -1 148.0072 199.3699)"
             y="-10.1"
             x="-6.2"
             id="left_pupil_4_"
             height="20.3"
             width="12.3"
             xlink:href="#pupil" /></g><g
           id="g1125"
           clip-path="url(#mask_5_)"
           style="clip-path:url(#mask_5_);"><use
             style="overflow:visible;"
             transform="matrix(1 0 0 -1 226.4462 199.3699)"
             y="-10.1"
             x="-6.2"
             id="right_pupil_4_"
             height="20.3"
             width="12.3"
             xlink:href="#pupil" /></g><g
           id="g1128"
           clip-path="url(#mask_5_)"
           style="clip-path:url(#mask_5_);"><use
             style="overflow:visible;"
             transform="matrix(1 0 0 -1 231.7871 193.5265)"
             y="-2.2"
             x="-2.2"
             id="right_shine_4_"
             height="4.3"
             width="4.3"
             xlink:href="#eye_shine" /></g><g
           id="g1131"
           clip-path="url(#mask_5_)"
           style="clip-path:url(#mask_5_);"><use
             style="overflow:visible;"
             transform="matrix(1 0 0 -1 154.1739 197.875)"
             y="-2.2"
             x="-2.2"
             id="left_shine_3_"
             height="4.3"
             width="4.3"
             xlink:href="#eye_shine" /></g></g></g><g
       class="st3"
       id="_x32__2_"><path
         d="M211.4,206.5c0,0,0.4-11.1,12.2-15.5s19.1,2.6,19.1,2.6s0.3,8.2-10.6,14.1    C221.6,213.5,211.4,206.5,211.4,206.5z M163,206.5c0,0-0.4-11.1-12.2-15.5s-19.1,2.6-19.1,2.6s-0.3,8.2,10.6,14.1    C152.9,213.5,163,206.5,163,206.5z"
         class="st17"
         id="eyes_4_" /><g
         class="st13"
         id="inner_4_"><defs
           id="defs1137"><path
             d="M211.4,206.5c0,0,0.4-11.1,12.2-15.5s19.1,2.6,19.1,2.6s0.3,8.2-10.6,14.1      C221.6,213.5,211.4,206.5,211.4,206.5z M163,206.5c0,0-0.4-11.1-12.2-15.5s-19.1,2.6-19.1,2.6s-0.3,8.2,10.6,14.1      C152.9,213.5,163,206.5,163,206.5z"
             id="mask" /></defs><clipPath
           id="mask_6_"><use
             id="use1139"
             style="overflow:visible;"
             xlink:href="#mask" /></clipPath><g
           id="g1143"
           clip-path="url(#mask_6_)"
           style="clip-path:url(#mask_6_);"><use
             style="overflow:visible;"
             transform="matrix(1 0 0 -1 148.0072 199.3699)"
             y="-10.1"
             x="-6.2"
             id="left_pupil_3_"
             height="20.3"
             width="12.3"
             xlink:href="#pupil" /></g><g
           id="g1146"
           clip-path="url(#mask_6_)"
           style="clip-path:url(#mask_6_);"><use
             style="overflow:visible;"
             transform="matrix(1 0 0 -1 226.4462 199.3699)"
             y="-10.1"
             x="-6.2"
             id="right_pupil_3_"
             height="20.3"
             width="12.3"
             xlink:href="#pupil" /></g><g
           id="g1149"
           clip-path="url(#mask_6_)"
           style="clip-path:url(#mask_6_);"><use
             style="overflow:visible;"
             transform="matrix(1 0 0 -1 231.7871 193.5265)"
             y="-2.2"
             x="-2.2"
             id="right_shine_3_"
             height="4.3"
             width="4.3"
             xlink:href="#eye_shine" /></g><g
           id="g1152"
           clip-path="url(#mask_6_)"
           style="clip-path:url(#mask_6_);"><use
             style="overflow:visible;"
             transform="matrix(1 0 0 -1 154.1739 197.875)"
             y="-2.2"
             x="-2.2"
             id="left_shine_5_"
             height="4.3"
             width="4.3"
             xlink:href="#eye_shine" /></g></g></g><g
       id="_x33__2_"><path
         d="M211.4,206.5c0,0,0.4-13.4,12.1-17.8s19.1,4.9,19.1,4.9s0.7,9.6-10.2,15.5    C221.9,215,211.4,206.5,211.4,206.5z M163,206.5c0,0-0.4-13.4-12.1-17.8s-19.1,4.9-19.1,4.9s-0.7,9.6,10.2,15.5    C152.5,215,163,206.5,163,206.5z"
         class="st18"
         id="eyes_3_" /><g
         id="inner_2_"><use
           style="overflow:visible;"
           transform="matrix(1 0 0 -1 148.0072 199.3699)"
           y="-10.1"
           x="-6.2"
           id="left_pupil_2_"
           height="20.3"
           width="12.3"
           xlink:href="#pupil" /><use
           style="overflow:visible;"
           transform="matrix(1 0 0 -1 226.4462 199.3699)"
           y="-10.1"
           x="-6.2"
           id="right_pupil_2_"
           height="20.3"
           width="12.3"
           xlink:href="#pupil" /><use
           style="overflow:visible;"
           transform="matrix(1 0 0 -1 231.7871 193.5265)"
           y="-2.2"
           x="-2.2"
           id="right_shine_2_"
           height="4.3"
           width="4.3"
           xlink:href="#eye_shine" /><use
           style="overflow:visible;"
           transform="matrix(1 0 0 -1 154.1739 197.875)"
           y="-2.2"
           x="-2.2"
           id="left_shine_4_"
           height="4.3"
           width="4.3"
           xlink:href="#eye_shine" /></g></g><g
       class="st3"
       id="_x34__2_"><path
         d="M211.4,206.5c0,0-1.3-15.8,10.6-19.9c13.8-4.6,20.7,7,20.7,7s1.5,11-9.3,17    C222.8,216.4,211.4,206.5,211.4,206.5z M163,206.5c0,0,1.3-15.8-10.6-19.9c-13.8-4.6-20.7,7-20.7,7s-1.5,11,9.3,17    C151.7,216.4,163,206.5,163,206.5z"
         class="st17"
         id="eyes_2_" /><g
         class="st13"
         id="inner_1_"><use
           style="overflow:visible;"
           transform="matrix(1 0 0 -1 148.0072 199.3699)"
           y="-10.1"
           x="-6.2"
           id="left_pupil_1_"
           height="20.3"
           width="12.3"
           xlink:href="#pupil" /><use
           style="overflow:visible;"
           transform="matrix(1 0 0 -1 226.4462 199.3699)"
           y="-10.1"
           x="-6.2"
           id="right_pupil_1_"
           height="20.3"
           width="12.3"
           xlink:href="#pupil" /><use
           style="overflow:visible;"
           transform="matrix(1 0 0 -1 231.7871 193.5265)"
           y="-2.2"
           x="-2.2"
           id="right_shine_1_"
           height="4.3"
           width="4.3"
           xlink:href="#eye_shine" /><use
           style="overflow:visible;"
           transform="matrix(1 0 0 -1 154.1739 197.875)"
           y="-2.2"
           x="-2.2"
           id="left_shine_2_"
           height="4.3"
           width="4.3"
           xlink:href="#eye_shine" /></g></g><g
       class="st3"
       id="_x35__2_"><path
         d="M211.4,206.5c0,0-5.5-17.7,10.8-22.4c16.3-4.6,20.4,9.5,20.4,9.5s3.5,13.4-10.5,19.1    C220.5,217.6,211.4,206.5,211.4,206.5z M163.2,206.7c0,0,5.5-17.7-10.8-22.4c-16.3-4.6-20.4,9.5-20.4,9.5s-3.5,13.4,10.5,19.1    C154.1,217.7,163.2,206.7,163.2,206.7z"
         class="st17"
         id="eyes_1_" /><g
         class="st13"
         id="inner"><use
           style="overflow:visible;"
           transform="matrix(1 0 0 -1 148.0072 199.3699)"
           y="-10.1"
           x="-6.2"
           id="left_pupil"
           height="20.3"
           width="12.3"
           xlink:href="#pupil" /><use
           style="overflow:visible;"
           transform="matrix(1 0 0 -1 226.4462 199.3699)"
           y="-10.1"
           x="-6.2"
           id="right_pupil"
           height="20.3"
           width="12.3"
           xlink:href="#pupil" /><use
           style="overflow:visible;"
           transform="matrix(1 0 0 -1 231.7871 193.5265)"
           y="-2.2"
           x="-2.2"
           id="right_shine"
           height="4.3"
           width="4.3"
           xlink:href="#eye_shine" /><use
           style="overflow:visible;"
           transform="matrix(1 0 0 -1 154.1739 197.875)"
           y="-2.2"
           x="-2.2"
           id="left_shine_1_"
           height="4.3"
           width="4.3"
           xlink:href="#eye_shine" /></g></g></g><g
     id="lines"><path
       d="M186.7,269.4   c-32.6,0-71.3-12.4-82.1-49.7c-4.9-16.8-9.3-51.6,24.2-83.1c13.8-13,32.6-26,57.9-26c25.3,0,44.1,13,57.9,26   c33.5,31.5,29.1,66.2,24.2,83.1C253.5,257.2,219.3,269.4,186.7,269.4z"
       class="st19"
       id="_x31__4_" /><path
       d="M282.3,222.4   c6.7-27.3-2.4-58.5-34.4-86.6c-14.2-12.5-37.1-25.1-61.2-25.1s-47,12.5-61.2,25.1c-32,28.2-41.1,59.3-34.4,86.6   c11.7,47.2,63,51.5,95.6,51.5C219.3,273.9,270.6,269.7,282.3,222.4z"
       class="st19"
       id="_x32__4_" /><path
       d="M186.7,278.4   c32.6,0,78.8,3.3,95.3-25.2c19-32.8,18.3-80.2-27.2-116.8c-18.9-15.2-43.8-25.7-68.1-25.7c-24.3,0-47.1,9.1-68.1,25.7   c-45.5,36.7-46.2,84-27.2,116.8C107.9,281.7,154.2,278.4,186.7,278.4z"
       class="st20"
       id="_x33__4_" /><path
       d="M71.7,245.7   c-13.8-37,6.1-79.6,33.2-103.7c24.3-21.6,56.6-31.3,81.8-31.3s57.5,9.7,81.8,31.3c27.1,24.1,47,66.7,33.2,103.7   c-19.7,52.7-82.4,38.1-115,38.1S91.4,298.5,71.7,245.7z"
       class="st19"
       id="_x34__4_" /><path
       d="M61.9,256.5   c-16.7-40.8-1.2-87.4,37.7-117.3c36.5-27.9,72.4-28.5,87.1-28.5c14.7,0,50.6,0.6,87.1,28.5c39,29.9,54.5,76.5,37.7,117.3   c-23.9,58.3-117.1,32.1-124.8,32.1C179,288.6,85.8,314.8,61.9,256.5L61.9,256.5z"
       class="st19"
       id="_x35__1_" /></g></svg>