<?xml version="1.0" encoding="UTF-8" standalone="no"?>
<!-- Generator: Adobe Illustrator 22.0.1, SVG Export Plug-In . SVG Version: 6.00 Build 0)  -->

<svg
   xmlns:dc="http://purl.org/dc/elements/1.1/"
   xmlns:cc="http://creativecommons.org/ns#"
   xmlns:rdf="http://www.w3.org/1999/02/22-rdf-syntax-ns#"
   xmlns:svg="http://www.w3.org/2000/svg"
   xmlns="http://www.w3.org/2000/svg"
   xmlns:xlink="http://www.w3.org/1999/xlink"
   xmlns:sodipodi="http://sodipodi.sourceforge.net/DTD/sodipodi-0.dtd"
   xmlns:inkscape="http://www.inkscape.org/namespaces/inkscape"
   version="1.1"
   id="spritesheet"
   x="0px"
   y="0px"
   viewBox="0 0 389 306"
   xml:space="preserve"
   sodipodi:docname="spritesheet.svg"
   inkscape:version="0.92.2 (5c3e80d, 2017-08-06)"
   width="389"
   height="306"
   inkscape:export-filename="C:\Users\Azure\Desktop\the monster.png"
   inkscape:export-xdpi="98.382523"
   inkscape:export-ydpi="98.382523"><defs
     id="defs1783"><clipPath
       id="_x35__6_"
       class="st26"
       clip-path="url(#_x34__6_)"><use
         xlink:href="#_x35__5_"
         style="overflow:visible;"
         id="use1546" /></clipPath><clipPath
       id="_x35__6_-2"
       class="st26"
       clip-path="url(#_x34__6_)"><use
         xlink:href="#_x35__5_"
         style="overflow:visible;"
         id="use3255" /></clipPath></defs><sodipodi:namedview
     pagecolor="#ffffff"
     bordercolor="#666666"
     borderopacity="1"
     objecttolerance="10"
     gridtolerance="10"
     guidetolerance="10"
     inkscape:pageopacity="0"
     inkscape:pageshadow="2"
     inkscape:window-width="1920"
     inkscape:window-height="1001"
     id="namedview1487"
     showgrid="false"
     inkscape:zoom="2.8229666"
     inkscape:cx="95.235742"
     inkscape:cy="116.87465"
     inkscape:window-x="-9"
     inkscape:window-y="-9"
     inkscape:window-maximized="1"
     inkscape:current-layer="spritesheet"
     fit-margin-top="16"
     fit-margin-left="16"
     fit-margin-right="16"
     fit-margin-bottom="0"
     showborder="true"
     inkscape:showpageshadow="false" /><g
     id="ears1"
     transform="translate(7.9673434,-21.999988)"><symbol
       id="ear1"
       viewBox="-64 -75.8 127.9 151.5"><path
         id="path2342"
         inkscape:connector-curvature="0"
         inkscape:transform-center-x="4.8508625"
         inkscape:transform-center-y="-5.9166176"
         sodipodi:nodetypes="zszsz"
         d="M -60,74.6 C -49.2,81.2 -0.8,39.7 41.9,13 66.5,-2.4 72.8,-30.1 46.2,-58.9 19.7,-87.8 -16.2,-73.5 -31.4,-53.6 -54.8,-23.1 -70.8,67.9 -60,74.6 Z"
         style="fill:none;stroke:#000000" /></symbol><use
       transform="matrix(0.9511,0.309,0.309,-0.9511,124.6408,127.1238)"
       y="-75.800003"
       x="-64"
       id="left1"
       height="151.5"
       width="127.9"
       xlink:href="#ear1" /><use
       id="right1"
       transform="matrix(-0.9511,0.309,-0.309,-0.9511,249.1101,127.1238)"
       y="-75.800003"
       x="-64"
       height="151.5"
       width="127.9"
       xlink:href="#ear1" /></g><g
     id="ears2"
     transform="translate(7.9673434,-21.999988)"><symbol
       viewBox="-64 -75.8 127.9 151.5"
       id="ear2"><path
         style="fill:none;stroke:#000000"
         d="M -60,74.6 C -49.2,81.2 -0.8,39.7 41.9,13 66.5,-2.4 72.8,-30.1 46.2,-58.9 19.7,-87.8 -16.2,-73.5 -31.4,-53.6 -54.8,-23.1 -70.8,67.9 -60,74.6 Z"
         sodipodi:nodetypes="zszsz"
         inkscape:transform-center-y="-5.9166176"
         inkscape:transform-center-x="4.8508625"
         inkscape:connector-curvature="0"
         id="path2338" /></symbol><use
       transform="matrix(0.9851,0.1719,0.1719,-0.9851,114.7603,131.9736)"
       y="-75.800003"
       x="-64"
       id="left2"
       height="151.5"
       width="127.9"
       xlink:href="#ear2" /><use
       transform="matrix(-0.9851,0.1719,-0.1719,-0.9851,259.6812,131.9736)"
       y="-75.800003"
       x="-64"
       id="right2"
       height="151.5"
       width="127.9"
       xlink:href="#ear2" /></g><g
     id="ears3"
     transform="translate(7.9673434,-21.999988)"><symbol
       id="ear3"
       viewBox="-64 -75.8 127.9 151.5"><path
         inkscape:connector-curvature="0"
         inkscape:transform-center-x="4.8508625"
         inkscape:transform-center-y="-5.9166176"
         sodipodi:nodetypes="zszsz"
         d="M -60,74.6 C -49.2,81.2 -0.8,39.7 41.9,13 66.5,-2.4 72.8,-30.1 46.2,-58.9 19.7,-87.8 -16.2,-73.5 -31.4,-53.6 -54.8,-23.1 -70.8,67.9 -60,74.6 Z"
         style="fill:none;stroke:#000000"
         id="path2372" /></symbol><use
       transform="matrix(1,0,0,-1,104.8466,139.2364)"
       y="-75.800003"
       x="-64"
       id="left3"
       height="151.5"
       width="127.9"
       xlink:href="#ear3" /><use
       transform="rotate(180,134.41145,69.6182)"
       y="-75.800003"
       x="-64"
       id="right3"
       height="151.5"
       width="127.9"
       xlink:href="#ear3" /></g><g
     id="ears4"
     transform="translate(7.9673434,-21.999988)"><symbol
       viewBox="-64 -75.8 127.9 151.5"
       id="ear4"><path
         style="fill:none;stroke:#000000"
         d="M -60,74.6 C -49.2,81.2 -0.8,39.7 41.9,13 66.5,-2.4 72.8,-30.1 46.2,-58.9 19.7,-87.8 -16.2,-73.5 -31.4,-53.6 -54.8,-23.1 -70.8,67.9 -60,74.6 Z"
         sodipodi:nodetypes="zszsz"
         inkscape:transform-center-y="-5.9166176"
         inkscape:transform-center-x="4.8508625"
         inkscape:connector-curvature="0"
         id="path2366" /></symbol><use
       transform="matrix(0.9902,-0.1398,-0.1398,-0.9902,97.6113,146.656)"
       y="-75.800003"
       x="-64"
       id="left4"
       height="151.5"
       width="127.9"
       xlink:href="#ear4" /><use
       transform="matrix(-0.9902,-0.1398,0.1398,-0.9902,278.8421,146.656)"
       y="-75.800003"
       x="-64"
       id="right4"
       height="151.5"
       width="127.9"
       xlink:href="#ear4" /></g><g
     id="ears5"
     transform="translate(7.9673434,-21.999988)"><symbol
       id="ear5"
       viewBox="-64 -75.8 127.9 151.5"><path
         inkscape:connector-curvature="0"
         inkscape:transform-center-x="4.8508625"
         inkscape:transform-center-y="-5.9166176"
         sodipodi:nodetypes="zszsz"
         d="M -60,74.6 C -49.2,81.2 -0.8,39.7 41.9,13 66.5,-2.4 72.8,-30.1 46.2,-58.9 19.7,-87.8 -16.2,-73.5 -31.4,-53.6 -54.8,-23.1 -70.8,67.9 -60,74.6 Z"
         style="fill:none;stroke:#000000"
         id="path2360" /></symbol><use
       transform="matrix(0.9455,-0.3256,-0.3256,-0.9455,90.5088,157.5663)"
       y="-75.800003"
       x="-64"
       id="left5"
       height="151.5"
       width="127.9"
       xlink:href="#ear5" /><use
       transform="matrix(-0.9455,-0.3256,0.3256,-0.9455,283.3665,157.5663)"
       y="-75.800003"
       x="-64"
       id="right5"
       height="151.5"
       width="127.9"
       xlink:href="#ear5" /></g><path
     style="fill:none;stroke:#000000;stroke-miterlimit:10"
     d="m 194.66734,247.40001 c -32.6,0 -71.3,-12.4 -82.1,-49.7 -4.9,-16.8 -9.3,-51.6 24.2,-83.1 13.8,-13 32.6,-25.999999 57.9,-25.999999 25.3,0 44.1,12.999999 57.9,25.999999 33.5,31.5 29.1,66.2 24.2,83.1 -15.3,37.5 -49.5,49.7 -82.1,49.7 z"
     sodipodi:nodetypes="zsszscz"
     inkscape:connector-curvature="0"
     id="head1" /><path
     style="fill:none;stroke:#000000;stroke-miterlimit:10"
     d="m 290.26734,200.40001 c 6.7,-27.3 -2.4,-58.5 -34.4,-86.6 -14.2,-12.5 -37.1,-25.099999 -61.2,-25.099999 -24.1,0 -47,12.499999 -61.2,25.099999 -32,28.2 -41.099997,59.3 -34.400001,86.6 11.700001,47.2 63.000001,51.5 95.600001,51.5 32.6,0 83.9,-4.2 95.6,-51.5 z"
     sodipodi:nodetypes="sszsszs"
     inkscape:connector-curvature="0"
     id="head2" /><path
     style="fill:none;stroke:#000000;stroke-miterlimit:10"
     d="m 194.66734,256.40001 c 32.6,0 78.8,3.3 95.3,-25.2 19,-32.8 18.3,-80.2 -27.2,-116.8 -18.9,-15.200002 -43.8,-25.699999 -68.1,-25.699999 -24.3,0 -47.1,9.1 -68.1,25.699999 -45.499997,36.7 -46.199997,84 -27.200001,116.8 16.500001,28.5 62.800001,25.2 95.300001,25.2 z"
     sodipodi:nodetypes="zsszcsz"
     inkscape:connector-curvature="0"
     id="head3" /><path
     style="fill:none;stroke:#000000;stroke-miterlimit:10"
     d="m 79.667343,223.70001 c -13.8,-37 6.1,-79.6 33.199997,-103.7 24.3,-21.599999 56.6,-31.299999 81.8,-31.299999 25.2,0 57.5,9.7 81.8,31.299999 27.1,24.1 47,66.7 33.2,103.7 -19.7,52.7 -82.4,38.1 -115,38.1 -32.6,0 -95.300001,14.7 -114.999997,-38.1 z"
     sodipodi:nodetypes="sszsszs"
     inkscape:connector-curvature="0"
     id="head4" /><path
     style="fill:none;stroke:#000000;stroke-miterlimit:10"
     d="m 69.867343,234.50001 c -16.7,-40.8 -1.2,-87.4 37.699997,-117.3 36.5,-27.899999 72.4,-28.499999 87.1,-28.499999 14.7,0 50.6,0.6 87.1,28.499999 39,29.9 54.5,76.5 37.7,117.3 -23.9,58.3 -117.1,32.1 -124.8,32.1 -7.7,0 -100.899997,26.2 -124.799997,-32.1 z"
     sodipodi:nodetypes="sszsszs"
     inkscape:connector-curvature="0"
     id="head5" /><path
     inkscape:connector-curvature="0"
     d="m 195.16734,106.60001 c 3.6,0 11.1,1.5 18.9,9 13,12.4 15,32.4 20.3,37.7 8.1,8.2 36.1,11.2 36.3,31.4 0.1,9.2 -14.7,35.2 -33.1,45.5 -20.2,11.3 -31.2,15.3 -42.4,15.3 -11.2,0 -22.2,-4 -42.4,-15.3 -18.3,-10.2 -33.1,-36.2 -33.1,-45.5 0.2,-20.3 28.2,-23.2 36.3,-31.4 5.3,-5.3 7.3,-25.3 20.3,-37.7 7.8,-7.4 15.4,-9 18.9,-9 z"
     id="point" /><path
     inkscape:connector-curvature="0"
     d="m 188.26734,128.50001 c -1.2,-5.7 -2.7,-14.2 -2.7,-14.2 0,0 -4.3,8.2 -4.3,12.3 0,6.5 1.3,17 1.3,17 0,0 -2.8,-4.7 -5.5,-9.5 -1.4,-2.5 -1.8,-8.3 -3,-13.7 -1.1,-4.9 -3.1,-9.7 -3.1,-9.7 0,0 -9.8,8 -13,24.5 -1.3,6.6 -0.9,15.8 -0.9,15.8 0,0 -4.4,-2.5 -5.1,-15.5 -0.3,-5.3 3.4,-20 2.2,-25.8 -1.3,-5.80001 -10.8,-17.000005 -10.8,-17.000005 l 51.8,-19.7 v 0 l 51.9,19.8 c 0,0 -9.6,11.199995 -10.8,17.000005 -1.3,5.8 2.5,20.5 2.2,25.8 -0.7,13 -5.1,15.5 -5.1,15.5 0,0 0.3,-9.3 -0.9,-15.8 -3.2,-16.5 -13,-24.5 -13,-24.5 0,0 -2,4.7 -3.1,9.7 -1.2,5.4 -1.6,11.1 -3,13.7 -2.7,4.8 -6.5,9.5 -6.5,9.5 0,0 2.3,-10.5 2.3,-17 0,-4.2 -4.3,-12.3 -4.3,-12.3 0,0 -1.5,8.5 -2.7,14.2 -2.3,11.2 -6.9,18 -6.9,18 0,0 -4.7,-6.9 -7,-18.1 z m 149.4,68.8 c 0,0 -36.7,-9.8 -47.2,-16.7 -4,-2.6 -7.5,-11.3 -11.7,-13.3 -4.3,-2.1 -13.3,-3.7 -19.5,-2.3 -5.6,1.2 -21.9,11 -21.9,11 0,0 13.8,-1.4 20.8,-2 3.5,-0.3 15.4,-0.2 18.2,2 3.3,2.6 6.2,11.2 9.3,14 4.7,4.1 22.3,10.7 22.3,10.7 0,0 -9.9,-1.1 -13.1,-1.9 -4.4,-1.1 -12.7,-4.8 -17.2,-5.3 -8.6,-0.9 -28.3,3.7 -28.3,3.7 0,0 25.2,0.6 30,2.2 10.6,3.4 31.6,11.1 41.3,16.7 5.6,3.2 20.4,16 20.4,16 z m -288.299999,34.6 c 0,0 14.799999,-12.8 20.399999,-16 9.7,-5.6 30.7,-13.3 41.3,-16.7 4.8,-1.5 30,-2.2 30,-2.2 0,0 -19.7,-4.5 -28.3,-3.7 -4.6,0.5 -12.8,4.2 -17.2,5.3 -3.2,0.8 -13.1,1.9 -13.1,1.9 0,0 17.6,-6.6 22.3,-10.7 3.2,-2.8 6,-11.4 9.3,-14 2.8,-2.2 14.7,-2.3 18.2,-2 7.1,0.7 20.8,2 20.8,2 0,0 -16.4,-9.7 -21.9,-11 -6.2,-1.4 -15.2,0.3 -19.5,2.3 -4.3,2.1 -7.8,10.7 -11.7,13.3 -10.4,6.9 -47.199999,16.7 -47.199999,16.7 z"
     id="tabby" /><path
     d="m 140.25476,128.54373 c 0.99859,-6.54038 7.84848,-12.3471 8.21258,-19.04372 0.11544,-2.12315 -2.16979,-4.18196 -1.5,-6.2 2.40112,-7.234419 10.99722,-10.791389 17.6,-14.599999 6.2487,-3.60437 20.3,-7.5 20.3,-7.5 l 19.3,4 c -2.89149,10.90831 -9.82122,11.49986 -14,15.699999 -1.30983,1.31653 -0.70136,3.87244 -2,5.2 -4.48442,4.58427 -11.52113,8.60438 -17.8,7.3 -4.14009,-0.86007 -7.2449,-4.24013 -11.2,-1.4 -4.5772,3.28686 -1.64547,6.68248 -1.7,10.3 -0.0607,4.0264 -2.88293,12.90898 -5.45339,16.0087 -3.36388,4.05653 -12.91134,-2.2188 -11.75919,-9.76498 z m 20.51258,53.85628 c 3.30035,1.2315 1.67949,9.07796 5.2,9.2 8.70364,0.30172 13.03124,-13.19936 14.4,-21.8 0.49441,-3.10662 -2.34405,-5.95815 -2.5,-9.1 -0.21626,-4.35672 5.44689,-9.98702 2.2,-12.9 -3.17296,-2.84665 -8.52045,1.52867 -12.3,3.5 -2.89878,1.51194 -6.1091,3.29034 -7.6,6.2 -1.50762,2.94229 1.63998,7.46844 -0.6,9.9 -5.24766,5.69648 -19.85074,-3.77601 -23,3.3 -2.67649,6.01376 4.74954,14.33587 11,16.4 4.43502,1.4646 8.82412,-6.33282 13.2,-4.7 z m 72.6,12 c 6.56476,5.19503 11.56922,0.97793 17.48742,6.89903 2.78695,2.78832 4.31955,16.78854 10.50194,14.80194 11.55706,-3.71366 11.14447,-7.14304 16.01064,-11.10097 3.74891,-3.04921 -3.51575,-17.16235 -4.9,-20 -3.99356,-8.18662 -0.0784,-15.27202 9.3,-15.2 7.6279,0.0586 9.76281,-8.04964 14.5,-4.6 2.90667,2.11664 -1.09486,8.7695 2,10.6 6.56705,3.88418 15.45488,-2.08634 15.6,-8.8 0.0365,-1.68648 -2.67417,-2.72214 -2.5,-4.4 0.62419,-6.01303 6.65621,-8.23963 11.9,-10.1 l -51.4,-54.299999 -55.9,-14 c 4.42553,4.79773 16.27117,20.931889 15.4,26.099999 -0.82409,4.88885 -8.80887,6.26374 -9.9,11.1 -0.8102,3.59107 1.202,7.44567 3.1,10.6 2.37566,3.94817 12.96828,7.61429 9.55085,10.70508 -3.95951,3.58106 -14.33327,-0.63197 -20.11356,3.2695 -3.86652,2.60974 -9.3172,3.13587 -7.80848,11.61356 1.50872,8.47769 -10.74513,27.42197 2.06152,30.17492 12.64249,2.71766 17.68234,0.75931 25.10967,6.63694 z m -46.8,20 c -6.90329,1.81172 -14.61499,9.08947 -14,16.2 1.24307,14.37244 27.54494,16.96818 38.0087,26.89903 4.47687,4.97857 6.08713,11.76111 12.25242,12.20387 7.29695,0.33518 15.67276,-2.70128 20.23888,-8.4029 3.38452,-4.22618 6.42125,-11.97482 2.8,-16 -2.63674,-2.93084 -10.38823,4.48092 -11.8,0.8 -2.24461,-5.8524 16.39716,-5.53882 14.8,-11.6 -2.51255,-9.53509 -18.08915,-5.84062 -23.95254,-7.63729 -6.43977,-1.97329 -10.02469,-10.94888 -16.75085,-11.3 -2.78929,-0.14561 -4.61079,3.73587 -7.39661,3.93729 -5.01626,0.36269 -9.33538,-6.37669 -14.2,-5.1 z m -76.3,-46.3 c -1.92997,2.72146 -1.46332,6.82444 -3.7,9.3 -7.356371,8.14203 -26.819161,4.4883 -29.199997,15.2 -1.748867,7.86838 14.154571,11.15808 14.7,19.2 0.241443,3.55989 -5.941373,5.79005 -5.3,9.3 0.676648,3.70299 5.875917,4.71111 8.7,7.2 11.623677,10.24403 18.869037,28.04231 33.899997,31.8 7.20124,1.80028 20.06558,1.48295 21.5,-5.8 0.72147,-3.66311 -6.94968,-3.61643 -8.9,-6.8 -2.9031,-4.73883 -0.22408,-11.58557 -3,-16.4 -4.28734,-7.43579 -19.61858,-8.11677 -19.6,-16.7 0.014,-6.45745 12.702,-6.39285 14.8,-12.5 3.72978,-10.85715 -3.21267,-22.89826 -7.1,-33.7 -1.28745,-3.57743 -1.56346,-9.39726 -5.3,-10.1 -4.99239,-0.93893 -8.56142,5.85629 -11.5,10 z"
     inkscape:connector-curvature="0"
     style="fill:#b47a00"
     id="tortie" /><path
     id="lowwhite"
     d="m 61.067343,260.10001 c 0,0 56.499997,-20.2 74.999997,-30.3 8.7,-4.7 21.9,-5.8 26.1,-14.7 0.8,-1.7 6.4,-10.9 6.9,-12.7 2.9,-8.4 15.1,-20 18,-28.4 0.4,-1.2 -0.3,-4 0,-5.3 0.6,-2.4 4.2,-6.3 5,-8.7 2,-5.5 3.8,-23 3.8,-23 0,0 4,11.9 4.2,16 0.2,2.9 -2.6,8.9 -1.5,11.7 1.1,2.8 7.2,5.4 9,7.8 5.2,6.5 15.7,31.4 20.8,37.9 5.9,7.4 16,6.9 24.4,11.3 17.4,9.2 75.5,39.7 75.5,39.7 l -133.6,44.6 z"
     inkscape:connector-curvature="0"
     style="fill:#f7f4e9" /><path
     style="fill:#f7f4e9"
     inkscape:connector-curvature="0"
     d="m 190.26734,131.00001 c -2.8,5.5 -13,14.3 -15.6,20.5 -4.7,11.2 -6.7,24.5 -19.3,30.7 -3.8,1.8 -20.8,-3 -29.4,-1.5 -22.3,3.9 -71.1,-7.1 -71.1,-7.1 l -14.6,97.7 154.4,34.7 136.2,-36.7 5,-93.7 c 0,0 -51.2,2.4 -67.3,8 -4,1.4 -17.5,-0.6 -21.5,0.7 -3.2,1.1 -13.5,-5.8 -15.2,-8.7 -3,-5.1 -8.2,-9.2 -8.3,-10.7 -0.3,-2.9 -3,-10.8 -4.2,-13.5 -3.5,-8.1 -17.3,-16.3 -14,-28 1.7,-6.3 -9.2,-22.9 -9.2,-22.9 0,0 -1.3,21.3 -5.9,30.5 z"
     id="highwhite" /><g
     id="muzzle1"
     transform="translate(7.9673434,-21.999988)"><path
       style="fill:none;stroke:#000000;stroke-miterlimit:10"
       inkscape:connector-curvature="0"
       d="m 160.7,248.6 c 2.6,6.1 17,11.5 26.5,11.5 9.6,0 23.9,-5.4 26.5,-11.5 l -26.5,-25.9 z"
       id="jaw1" /><path
       style="fill:none;stroke:#000000;stroke-miterlimit:10"
       inkscape:connector-curvature="0"
       d="m 187.2,233 c -11,3.5 -22.2,17.9 -28.7,19.4 -11.2,2.7 -21.7,-7 -18.7,-17.4 2.6,-8.8 24.2,-29.4 30.1,-39.4 5.8,-9.8 12.2,-10.3 17.3,-10.5 0,0 0.1,0 0.1,0 5.1,0.2 11.5,0.8 17.3,10.5 5.9,10 27.5,30.6 30.1,39.4 3,10.3 -7.5,20.1 -18.7,17.4 -6.5,-1.5 -17.7,-15.9 -28.8,-19.4 z m 0,-17.8 v 18.4"
       id="lips1" /><path
       inkscape:connector-curvature="0"
       d="m 187.2,215.2 c 3.9,0 3.1,-3.7 3.7,-5.1 0.6,-1.5 4.7,0 5.8,-1.1 0.7,-0.7 1.1,-2.3 0.4,-3 -1.7,-1.9 -7.3,-1.7 -9.9,-1.7 -2.6,0 -8.2,-0.2 -9.9,1.7 -0.6,0.7 -0.2,2.3 0.4,3 1.1,1.1 5.2,-0.4 5.8,1.1 0.6,1.4 -0.2,5.1 3.7,5.1 z"
       id="path2303" /></g><g
     id="muzzle2"
     transform="translate(7.9673434,-21.999988)"><path
       style="fill:none;stroke:#000000;stroke-miterlimit:10"
       inkscape:connector-curvature="0"
       d="m 160.7,255.6 c 2.6,6.1 17,11.5 26.5,11.5 9.6,0 23.9,-5.4 26.5,-11.5 L 187.2,238 Z"
       id="jaw2" /><path
       style="fill:none;stroke:#000000;stroke-miterlimit:10"
       inkscape:connector-curvature="0"
       d="m 157.9,258.9 c -10.5,-1 -19.3,-12.1 -16.6,-22 2.4,-8.8 26.2,-36 33.5,-43.9 5.3,-5.6 8.9,-6.5 12.4,-6.5 3.5,0 7.1,0.9 12.4,6.5 7.3,7.9 31.1,35 33.5,43.9 2.7,9.9 -6.1,21 -16.6,22 -6.2,0.6 -29.3,-18.4 -29.3,-18.4 0,0 -23.1,19 -29.3,18.4 z m 29.3,-30.5 v 12.1"
       id="lips2" /><path
       inkscape:connector-curvature="0"
       d="m 187.2,228.4 c 3.9,0 3.1,-3.7 3.7,-5.1 0.6,-1.5 4.7,0 5.8,-1.1 0.7,-0.7 1.1,-2.3 0.4,-3 -1.7,-1.9 -7.3,-1.7 -9.9,-1.7 -2.6,0 -8.2,-0.2 -9.9,1.7 -0.6,0.7 -0.2,2.3 0.4,3 1.1,1.1 5.2,-0.4 5.8,1.1 0.6,1.4 -0.2,5.1 3.7,5.1 z"
       id="path2298" /></g><g
     id="muzzle3"
     transform="translate(7.9673434,-21.999988)"><path
       style="fill:none;stroke:#000000;stroke-miterlimit:10"
       inkscape:connector-curvature="0"
       d="m 160.7,264.8 c 2.6,6.1 17,11.5 26.5,11.5 9.6,0 23.9,-5.4 26.5,-11.5 L 187.2,251 Z"
       id="jaw3" /><path
       style="fill:none;stroke:#000000;stroke-miterlimit:10"
       inkscape:connector-curvature="0"
       d="m 159.7,264.8 c -10.5,-1 -21.5,-11.4 -18.8,-21.2 2.4,-8.8 29.1,-43.8 35.3,-52.7 3.3,-4.7 11.1,-4.2 11.1,-4.2 0,0 7.8,-0.5 11.1,4.2 6.2,8.9 32.9,43.9 35.3,52.7 2.7,9.9 -8.3,20.2 -18.8,21.2 -6.2,0.6 -27.5,-9.9 -27.5,-9.9 0,0 -21.5,10.5 -27.7,9.9 z M 187.2,243 v 10 1.9"
       id="lips3" /><path
       inkscape:connector-curvature="0"
       d="m 187.2,243 c 3.9,0 3.1,-3.7 3.7,-5.1 0.6,-1.5 4.7,0 5.8,-1.1 0.7,-0.7 1.1,-2.3 0.4,-3 -1.7,-1.9 -7.3,-1.7 -9.9,-1.7 -2.6,0 -8.2,-0.2 -9.9,1.7 -0.6,0.7 -0.2,2.3 0.4,3 1.1,1.1 5.2,-0.4 5.8,1.1 0.6,1.4 -0.2,5.1 3.7,5.1 z"
       id="path2293" /></g><g
     id="muzzle4"
     transform="translate(7.9673434,-21.999988)"><path
       style="fill:none;stroke:#000000;stroke-miterlimit:10"
       inkscape:connector-curvature="0"
       d="m 160.7,274.6 c 2.6,6.1 17,11.5 26.5,11.5 9.6,0 23.9,-5.4 26.5,-11.5 l -26.5,-13.8 z"
       id="jaw4" /><path
       style="fill:none;stroke:#000000;stroke-miterlimit:10"
       inkscape:connector-curvature="0"
       d="m 160.7,274.1 c -10.5,-1 -22.1,-13.2 -19.4,-23.1 2.4,-8.8 24.5,-42.7 31,-53.6 5.3,-8.7 10.3,-9.8 14.9,-9.8 4.6,0 9.6,1.1 14.9,9.8 6.6,10.9 28.6,44.7 31,53.6 2.7,9.9 -8.9,22.1 -19.4,23.1 -6.2,0.6 -26.5,-8.3 -26.5,-8.3 0,0 -20.3,8.9 -26.5,8.3 z m 26.5,-19 v 10.8"
       id="lips4" /><path
       inkscape:connector-curvature="0"
       d="m 187.2,255.1 c 3.9,0 3.1,-3.7 3.7,-5.1 0.6,-1.5 4.7,0 5.8,-1.1 0.7,-0.7 1.1,-2.3 0.4,-3 -1.7,-1.9 -7.3,-1.7 -9.9,-1.7 -2.6,0 -8.2,-0.2 -9.9,1.7 -0.6,0.7 -0.2,2.3 0.4,3 1.1,1.1 5.2,-0.4 5.8,1.1 0.6,1.4 -0.2,5.1 3.7,5.1 z"
       id="path2288" /></g><g
     id="muzzle5"
     transform="translate(7.9673434,-21.999988)"><path
       style="fill:none;stroke:#000000;stroke-miterlimit:10"
       inkscape:connector-curvature="0"
       d="m 187.2,270.7 22.8,12.1 c -2.6,6.1 -13.3,11.4 -22.8,11.4 -9.6,0 -20.2,-5.4 -22.8,-11.4 z"
       id="jaw5" /><path
       style="fill:none;stroke:#000000;stroke-miterlimit:10"
       inkscape:connector-curvature="0"
       d="m 161.5,283 c -13.4,-0.6 -22.8,-16 -18.7,-27.9 3,-8.7 27.3,-48.5 31.8,-58.3 3.7,-8.2 12.6,-8 12.6,-8 0,0 8.8,-0.2 12.6,8 4.5,9.8 28.9,49.6 31.8,58.3 4.1,11.9 -5.3,27.3 -18.7,27.9 -6.2,0.3 -25.7,-7.3 -25.7,-7.3 0,0 -19.5,7.6 -25.7,7.3 z m 25.7,-16 v 8.8"
       id="lips5" /><path
       inkscape:connector-curvature="0"
       d="m 187.2,267 c 3.9,0 3.1,-3.7 3.7,-5.1 0.6,-1.5 4.7,0 5.8,-1.1 0.7,-0.7 1.1,-2.3 0.4,-3 -1.7,-1.9 -7.3,-1.7 -9.9,-1.7 -2.6,0 -8.2,-0.2 -9.9,1.7 -0.6,0.7 -0.2,2.3 0.4,3 1.1,1.1 5.2,-0.4 5.8,1.1 0.6,1.4 -0.2,5.1 3.7,5.1 z"
       id="path2283" /></g><g
     id="eyes1"
     transform="translate(7.9673434,-21.999988)"><symbol
       id="shine1"
       viewBox="-2.2 -2.2 4.3 4.3"><circle
         style="fill:#ffffff"
         class="st2"
         cx="0"
         cy="0"
         r="2.2"
         id="circle2150" /></symbol><symbol
       id="pupil1"
       viewBox="-6.2 -10.1 12.3 20.3"><path
         inkscape:connector-curvature="0"
         d="M 0,-10.1 C 2,-10.1 6.2,-6.9 6.2,0 6.2,6.9 1.8,10.1 0,10.1 -1.9,10.1 -6.1,6.9 -6.1,0 -6.1,-6.9 -1.9,-10.1 0,-10.1 Z"
         id="path2268" /></symbol><path
       style="fill:none;stroke:#000000;stroke-miterlimit:10"
       inkscape:connector-curvature="0"
       d="m 143.6,206.5 c -10.9,-5.7 -11.9,-12.9 -11.9,-12.9 0,0 6,-5.3 17.8,-0.9 11.8,4.4 13.5,13.8 13.5,13.8 0,0 -10.4,4.8 -19.4,0 z m 87.2,0 c 10.9,-5.7 11.9,-12.9 11.9,-12.9 0,0 -6,-5.3 -17.8,-0.9 -11.8,4.4 -13.5,13.8 -13.5,13.8 0,0 10.4,4.8 19.4,0 z"
       id="iris1" /><use
       transform="matrix(1,0,0,-1,148.0072,199.3699)"
       y="-10.1"
       x="-6.1999998"
       height="20.299999"
       width="12.3"
       xlink:href="#pupil1"
       id="use2272" /><use
       transform="matrix(1,0,0,-1,226.4462,199.3699)"
       y="-10.1"
       x="-6.1999998"
       height="20.299999"
       width="12.3"
       xlink:href="#pupil1"
       id="use2274" /><use
       transform="matrix(1,0,0,-1,231.7871,193.5265)"
       y="-2.2"
       x="-2.2"
       height="4.3000002"
       width="4.3000002"
       xlink:href="#shine1"
       id="use2276" /><use
       transform="matrix(1,0,0,-1,154.1739,197.875)"
       y="-2.2"
       x="-2.2"
       height="4.3000002"
       width="4.3000002"
       xlink:href="#shine1"
       id="use2278" /></g><g
     id="eyes2"
     transform="translate(7.9673434,-21.999988)"><symbol
       viewBox="-2.2 -2.2 4.3 4.3"
       id="shine2"><circle
         id="circle2156"
         r="2.2"
         cy="0"
         cx="0"
         class="st2"
         style="fill:#ffffff" /></symbol><symbol
       viewBox="-6.2 -10.1 12.3 20.3"
       id="pupil2"><path
         id="path2160"
         d="M 0,-10.1 C 2,-10.1 6.2,-6.9 6.2,0 6.2,6.9 1.8,10.1 0,10.1 -1.9,10.1 -6.1,6.9 -6.1,0 -6.1,-6.9 -1.9,-10.1 0,-10.1 Z"
         inkscape:connector-curvature="0" /></symbol><path
       style="fill:none;stroke:#000000;stroke-miterlimit:10"
       inkscape:connector-curvature="0"
       d="m 211.4,206.5 c 0,0 0.4,-11.1 12.2,-15.5 11.8,-4.4 19.1,2.6 19.1,2.6 0,0 0.3,8.2 -10.6,14.1 -10.5,5.8 -20.7,-1.2 -20.7,-1.2 z m -48.4,0 c 0,0 -0.4,-11.1 -12.2,-15.5 -11.8,-4.4 -19.1,2.6 -19.1,2.6 0,0 -0.3,8.2 10.6,14.1 10.6,5.8 20.7,-1.2 20.7,-1.2 z"
       id="iris2" /><use
       transform="matrix(1,0,0,-1,148.0072,199.3699)"
       y="-10.1"
       x="-6.1999998"
       height="20.299999"
       width="12.3"
       xlink:href="#pupil2"
       id="use2257" /><use
       transform="matrix(1,0,0,-1,226.4462,199.3699)"
       y="-10.1"
       x="-6.1999998"
       height="20.299999"
       width="12.3"
       xlink:href="#pupil2"
       id="use2259" /><use
       transform="matrix(1,0,0,-1,231.7871,193.5265)"
       y="-2.2"
       x="-2.2"
       height="4.3000002"
       width="4.3000002"
       xlink:href="#shine2"
       id="use2261" /><use
       transform="matrix(1,0,0,-1,154.1739,197.875)"
       y="-2.2"
       x="-2.2"
       height="4.3000002"
       width="4.3000002"
       xlink:href="#shine2"
       id="use2263" /></g><g
     id="eyes3"
     transform="translate(7.9673434,-21.999988)"><symbol
       viewBox="-2.2 -2.2 4.3 4.3"
       id="shine3"><circle
         id="circle2178"
         r="2.2"
         cy="0"
         cx="0"
         class="st2"
         style="fill:#ffffff" /></symbol><symbol
       viewBox="-6.2 -10.1 12.3 20.3"
       id="pupil3"><path
         id="path2172"
         d="M 0,-10.1 C 2,-10.1 6.2,-6.9 6.2,0 6.2,6.9 1.8,10.1 0,10.1 -1.9,10.1 -6.1,6.9 -6.1,0 -6.1,-6.9 -1.9,-10.1 0,-10.1 Z"
         inkscape:connector-curvature="0" /></symbol><path
       style="fill:none;stroke:#000000;stroke-miterlimit:10"
       inkscape:connector-curvature="0"
       d="m 211.4,206.5 c 0,0 0.4,-13.4 12.1,-17.8 11.7,-4.4 19.1,4.9 19.1,4.9 0,0 0.7,9.6 -10.2,15.5 -10.5,5.9 -21,-2.6 -21,-2.6 z m -48.4,0 c 0,0 -0.4,-13.4 -12.1,-17.8 -11.7,-4.4 -19.1,4.9 -19.1,4.9 0,0 -0.7,9.6 10.2,15.5 10.5,5.9 21,-2.6 21,-2.6 z"
       id="iris3" /><use
       xlink:href="#pupil3"
       width="12.3"
       height="20.299999"
       x="-6.1999998"
       y="-10.1"
       transform="matrix(1,0,0,-1,148.0072,199.3699)"
       id="use2243" /><use
       xlink:href="#pupil3"
       width="12.3"
       height="20.299999"
       x="-6.1999998"
       y="-10.1"
       transform="matrix(1,0,0,-1,226.4462,199.3699)"
       id="use2245" /><use
       xlink:href="#shine3"
       width="4.3000002"
       height="4.3000002"
       x="-2.2"
       y="-2.2"
       transform="matrix(1,0,0,-1,231.7871,193.5265)"
       id="use2247" /><use
       xlink:href="#shine3"
       width="4.3000002"
       height="4.3000002"
       x="-2.2"
       y="-2.2"
       transform="matrix(1,0,0,-1,154.1739,197.875)"
       id="use2249" /></g><g
     id="eyes4"
     transform="translate(7.9673434,-21.999988)"><symbol
       id="shine4"
       viewBox="-2.2 -2.2 4.3 4.3"><circle
         style="fill:#ffffff"
         class="st2"
         cx="0"
         cy="0"
         r="2.2"
         id="circle2196" /></symbol><symbol
       id="pupil4"
       viewBox="-6.2 -10.1 12.3 20.3"><path
         inkscape:connector-curvature="0"
         d="M 0,-10.1 C 2,-10.1 6.2,-6.9 6.2,0 6.2,6.9 1.8,10.1 0,10.1 -1.9,10.1 -6.1,6.9 -6.1,0 -6.1,-6.9 -1.9,-10.1 0,-10.1 Z"
         id="path2184" /></symbol><path
       style="fill:none;stroke:#000000;stroke-miterlimit:10"
       inkscape:connector-curvature="0"
       d="m 211.4,206.5 c 0,0 -1.3,-15.8 10.6,-19.9 13.8,-4.6 20.7,7 20.7,7 0,0 1.5,11 -9.3,17 -10.6,5.8 -22,-4.1 -22,-4.1 z m -48.4,0 c 0,0 1.3,-15.8 -10.6,-19.9 -13.8,-4.6 -20.7,7 -20.7,7 0,0 -1.5,11 9.3,17 10.7,5.8 22,-4.1 22,-4.1 z"
       id="iris4" /><use
       xlink:href="#pupil4"
       width="12.3"
       height="20.299999"
       x="-6.1999998"
       y="-10.1"
       transform="matrix(1,0,0,-1,148.0072,199.3699)"
       id="use2229" /><use
       xlink:href="#pupil4"
       width="12.3"
       height="20.299999"
       x="-6.1999998"
       y="-10.1"
       transform="matrix(1,0,0,-1,226.4462,199.3699)"
       id="use2231" /><use
       xlink:href="#shine4"
       width="4.3000002"
       height="4.3000002"
       x="-2.2"
       y="-2.2"
       transform="matrix(1,0,0,-1,231.7871,193.5265)"
       id="use2233" /><use
       xlink:href="#shine4"
       width="4.3000002"
       height="4.3000002"
       x="-2.2"
       y="-2.2"
       transform="matrix(1,0,0,-1,154.1739,197.875)"
       id="use2235" /></g><g
     id="eyes5"
     transform="translate(7.9673434,-21.999988)"><symbol
       viewBox="-2.2 -2.2 4.3 4.3"
       id="shine5"><circle
         id="circle2202"
         r="2.2"
         cy="0"
         cx="0"
         class="st2"
         style="fill:#ffffff" /></symbol><symbol
       viewBox="-6.2 -10.1 12.3 20.3"
       id="pupil5"><path
         id="path2190"
         d="M 0,-10.1 C 2,-10.1 6.2,-6.9 6.2,0 6.2,6.9 1.8,10.1 0,10.1 -1.9,10.1 -6.1,6.9 -6.1,0 -6.1,-6.9 -1.9,-10.1 0,-10.1 Z"
         inkscape:connector-curvature="0" /></symbol><path
       style="fill:none;stroke:#000000;stroke-miterlimit:10"
       inkscape:connector-curvature="0"
       d="m 211.4,206.5 c 0,0 -5.5,-17.7 10.8,-22.4 16.3,-4.6 20.4,9.5 20.4,9.5 0,0 3.5,13.4 -10.5,19.1 -11.6,4.9 -20.7,-6.2 -20.7,-6.2 z m -48.2,0.2 c 0,0 5.5,-17.7 -10.8,-22.4 -16.3,-4.6 -20.4,9.5 -20.4,9.5 0,0 -3.5,13.4 10.5,19.1 11.6,4.8 20.7,-6.2 20.7,-6.2 z"
       id="iris5" /><use
       xlink:href="#pupil5"
       width="12.3"
       height="20.299999"
       x="-6.1999998"
       y="-10.1"
       transform="matrix(1,0,0,-1,148.0072,199.3699)"
       id="use2215" /><use
       xlink:href="#pupil5"
       width="12.3"
       height="20.299999"
       x="-6.1999998"
       y="-10.1"
       transform="matrix(1,0,0,-1,226.4462,199.3699)"
       id="use2217" /><use
       xlink:href="#shine5"
       width="4.3000002"
       x="-2.2"
       y="-2.2"
       transform="matrix(1,0,0,-1,231.7871,193.5265)"
       height="4.3000002"
       id="use2219" /><use
       xlink:href="#shine5"
       width="4.3000002"
       height="4.3000002"
       x="-2.2"
       y="-2.2"
       transform="matrix(1,0,0,-1,154.1739,197.875)"
       id="use2221" /></g><path
     style="fill:none;stroke:#000000;stroke-miterlimit:10"
     d="m 194.66734,247.40001 c -32.6,0 -71.3,-12.4 -82.1,-49.7 -4.9,-16.8 -9.3,-51.6 24.2,-83.1 13.8,-13 32.6,-25.999999 57.9,-25.999999 25.3,0 44.1,12.999999 57.9,25.999999 33.5,31.5 29.1,66.2 24.2,83.1 -15.3,37.5 -49.5,49.7 -82.1,49.7 z"
     sodipodi:nodetypes="zsszscz"
     inkscape:connector-curvature="0"
     id="lines1" /><path
     style="fill:none;stroke:#000000;stroke-miterlimit:10"
     d="m 290.26734,200.40001 c 6.7,-27.3 -2.4,-58.5 -34.4,-86.6 -14.2,-12.5 -37.1,-25.099999 -61.2,-25.099999 -24.1,0 -47,12.499999 -61.2,25.099999 -32,28.2 -41.099997,59.3 -34.400001,86.6 11.700001,47.2 63.000001,51.5 95.600001,51.5 32.6,0 83.9,-4.2 95.6,-51.5 z"
     sodipodi:nodetypes="sszsszs"
     inkscape:connector-curvature="0"
     id="lines2" /><path
     style="fill:none;stroke:#000000;stroke-miterlimit:10"
     d="m 194.66734,256.40001 c 32.6,0 78.8,3.3 95.3,-25.2 19,-32.8 18.3,-80.2 -27.2,-116.8 -18.9,-15.200002 -43.8,-25.699999 -68.1,-25.699999 -24.3,0 -47.1,9.1 -68.1,25.699999 -45.499997,36.7 -46.199997,84 -27.200001,116.8 16.500001,28.5 62.800001,25.2 95.300001,25.2 z"
     sodipodi:nodetypes="zsszcsz"
     inkscape:connector-curvature="0"
     id="lines3" /><path
     style="fill:none;stroke:#000000;stroke-miterlimit:10"
     d="m 79.667343,223.70001 c -13.8,-37 6.1,-79.6 33.199997,-103.7 24.3,-21.599999 56.6,-31.299999 81.8,-31.299999 25.2,0 57.5,9.7 81.8,31.299999 27.1,24.1 47,66.7 33.2,103.7 -19.7,52.7 -82.4,38.1 -115,38.1 -32.6,0 -95.300001,14.7 -114.999997,-38.1 z"
     sodipodi:nodetypes="sszsszs"
     inkscape:connector-curvature="0"
     id="lines4" /><path
     style="fill:none;stroke:#000000;stroke-miterlimit:10"
     d="m 69.867343,234.50001 c -16.7,-40.8 -1.2,-87.4 37.699997,-117.3 36.5,-27.899999 72.4,-28.499999 87.1,-28.499999 14.7,0 50.6,0.6 87.1,28.499999 39,29.9 54.5,76.5 37.7,117.3 -23.9,58.3 -117.1,32.1 -124.8,32.1 -7.7,0 -100.899997,26.2 -124.799997,-32.1 z"
     sodipodi:nodetypes="sszsszs"
     inkscape:connector-curvature="0"
     id="lines5" /><metadata
     id="metadata3309"><rdf:RDF><cc:Work
         rdf:about=""><dc:title /><dc:format>image/svg+xml</dc:format><dc:type
           rdf:resource="http://purl.org/dc/dcmitype/StillImage" /></cc:Work></rdf:RDF></metadata></svg>